<svg width="250" height="251" viewBox="0 0 250 251" fill="none" xmlns="http://www.w3.org/2000/svg">
<path d="M144.895 158.703H105.105C98.7058 158.703 93.5 164.836 93.5 172.375V180.188C93.5 187.727 98.7058 193.859 105.105 193.859H144.895C151.294 193.859 156.5 187.727 156.5 180.188V172.375C156.5 164.836 151.294 158.703 144.895 158.703Z" fill="#B40404"/>
<path d="M17.5781 37.6094C17.5781 35.452 19.327 33.7031 21.4844 33.7031C23.6417 33.7031 25.3906 35.452 25.3906 37.6094V49.3281C25.3906 51.4855 23.6417 53.2344 21.4844 53.2344C19.327 53.2344 17.5781 51.4855 17.5781 49.3281V37.6094Z" fill="#B40404"/>
<path d="M31.25 61.0469H111.527C111.418 60.0859 111.328 59.1523 111.277 58.3008C111.098 55.3945 109.066 53.0234 106.328 52.5312C94.4414 50.3984 87.8906 44.4062 87.8906 35.6562V25.8906H31.25C30.1758 25.8906 29.2969 26.7695 29.2969 27.8438V59.0938C29.2969 60.168 30.1758 61.0469 31.25 61.0469Z" fill="#B40404"/>
<path d="M208.984 71.5H108.78C110.495 79.5273 116.351 86.2539 127.5 90.3438C132.758 92.2773 134.957 97.1602 135 103C135.074 114.848 142.406 136.884 154.394 136.884C162.051 136.884 174.704 135.773 177.501 128C179.536 122.344 179.083 116.762 185.001 118C195.227 120.117 203.934 119.205 208.984 107.677V71.5Z" fill="#B40404"/>
<path d="M208.984 153.926V105.773C201.32 116.902 191.105 116.941 185.156 115.707C181.125 114.895 177.055 117.133 175.676 120.965C172.312 130.32 165.594 135.266 156.25 135.266C144.863 135.266 138.508 122.625 138.355 99.6641C138.324 95.4414 135.797 91.6836 132.059 90.3086C118.832 85.4492 113.906 80.6562 112.129 71.5078H41.0156V153.93C50.8711 157.945 64.8047 161.602 84.3945 163.668C86.1016 155.754 93.1445 149.797 101.562 149.797H148.438C156.855 149.797 163.898 155.754 165.605 163.668C185.195 161.602 199.125 157.941 208.984 153.926Z" fill="#B40404"/>
<path d="M92.0156 48.6875C96.5273 49.5 99.8828 53.3516 100.172 58.0586C100.23 58.9805 100.324 59.9883 100.453 61.0469H218.75C219.824 61.0469 220.703 60.168 220.703 59.0938V27.8438C220.703 26.7695 219.824 25.8906 218.75 25.8906H76.7969V35.6562C76.7969 44.1719 85.0742 47.4414 92.0156 48.6875Z" fill="#B40404"/>
<path d="M119.215 115.758C115.762 120.883 112.453 127.129 113.129 130.23C113.273 130.879 113.578 131.281 114.156 131.566C115.793 132.383 117.059 132.641 117.648 132.273C119.539 131.074 119.383 123.566 119.242 116.945C119.227 116.551 119.223 116.152 119.215 115.758Z" fill="#B40404"/>
<path d="M224.609 37.6094C224.609 35.452 226.358 33.7031 228.516 33.7031C230.673 33.7031 232.422 35.452 232.422 37.6094V49.3281C232.422 51.4855 230.673 53.2344 228.516 53.2344C226.358 53.2344 224.609 51.4855 224.609 49.3281V37.6094Z" fill="#B40404"/>
<path d="M148.438 202.766H101.562C93.332 202.766 86.457 197.059 84.5547 189.41C66.3047 187.648 52.0898 184.586 41.0156 180.871V221.438C41.0156 227.109 44.3906 232.098 49.6172 234.152C61.7656 238.937 84.7109 244.641 125 244.641C165.289 244.641 188.23 238.937 200.379 234.152C205.609 232.098 208.984 227.105 208.984 221.434V180.871C197.91 184.586 183.695 187.648 165.445 189.41C163.543 197.059 156.668 202.766 148.438 202.766Z" fill="#B40404"/>
<path d="M83.9844 180.188V172.555C20.543 165.859 13.9766 142.594 13.7305 141.598C13.6914 141.441 13.6719 141.285 13.6719 141.125V45.4219C13.6719 43.2645 11.923 41.5156 9.76562 41.5156C7.60826 41.5156 5.85938 43.2645 5.85938 45.4219V141.125C5.86328 141.43 7.26953 172.766 84.0078 180.426C84.0078 180.344 83.9844 180.27 83.9844 180.188Z" fill="#B40404"/>
<path d="M236.328 141.125C236.328 141.285 236.309 141.441 236.27 141.598C236.02 142.594 229.457 165.859 166.016 172.555V180.188C166.016 180.27 165.992 180.344 165.992 180.426C242.73 172.766 244.137 141.43 244.141 141.109V45.4219C244.141 43.2645 242.392 41.5156 240.234 41.5156C238.077 41.5156 236.328 43.2645 236.328 45.4219V141.125Z" fill="#B40404"/>
</svg>
