<svg width="118" height="80" viewBox="0 0 118 80" fill="none" xmlns="http://www.w3.org/2000/svg">
<g clip-path="url(#clip0_780_258)">
<path d="M15.5 65.5003C15.5 67.9813 17.522 70.0003 20 70.0003H44C46.4811 70.0003 48.5 67.9813 48.5 65.5003V55.0002H15.5V65.5003Z" fill="#B40404"/>
<path d="M82.9999 19.0004H71.9299L70.1749 15.4874C69.407 13.9543 67.8619 13.0003 66.149 13.0003H59.246L54.1729 11.3113C51.569 10.4412 48.8569 10.0002 46.1089 10.0002H17C14.522 10.0002 12.5 12.0192 12.5 14.5002V26.5003C12.5 28.9814 14.522 31.0003 17 31.0003H24.251L21.608 48.1663L16.4989 52.0003H47.3059L38.159 48.0792L39.176 41.4613C39.2869 41.4853 39.3949 41.5002 39.5029 41.5002C40.175 41.5002 40.787 41.0473 40.9549 40.3633L42.4549 34.3632C42.6559 33.5593 42.1669 32.7462 41.363 32.5452C41.0779 32.4732 40.796 32.5122 40.5379 32.5992L40.787 31.0003H46.106C48.8539 31.0003 51.566 30.5593 54.17 29.6893L59.243 28.0002H66.146C67.862 28.0002 69.404 27.0462 70.172 25.5133L71.927 22.0003H82.9999C83.8279 22.0003 84.4999 21.3283 84.4999 20.5003C84.4999 19.6723 83.8279 19.0004 82.9999 19.0004ZM28.9999 25.0003H19.9999C19.1719 25.0003 18.4999 24.3282 18.4999 23.5002C18.4999 22.6722 19.1719 22.0003 19.9999 22.0003H28.9999C29.8279 22.0003 30.5 22.6724 30.5 23.5004C30.5 24.3284 29.8279 25.0003 28.9999 25.0003ZM28.9999 19.0004H19.9999C19.1719 19.0004 18.4999 18.3283 18.4999 17.5003C18.4999 16.6723 19.1719 16.0003 19.9999 16.0003H28.9999C29.8279 16.0003 30.5 16.6723 30.5 17.5003C30.5 18.3283 29.8279 19.0004 28.9999 19.0004ZM60.4999 23.5004C60.4999 24.3284 59.8279 25.0004 58.9999 25.0004C58.1719 25.0004 57.5 24.3284 57.5 23.5004V17.5003C57.5 16.6723 58.172 16.0003 59 16.0003C59.828 16.0003 60.4999 16.6723 60.4999 17.5003V23.5004Z" fill="#B40404"/>
<path d="M95.4576 22.1314L71.8886 22.1314L71.8886 18.9536H95.4576H95.5576V18.8536V12.5863C95.5606 11.7122 96.2711 11.0017 97.1451 10.9987C100.766 10.9987 103.731 12.1387 105.685 14.0923C106.021 14.4282 106.308 14.8044 106.586 15.1932L106.667 15.3068L106.748 15.1933C108.622 12.5813 111.968 10.9996 116.237 10.9987C116.675 10.9987 117.074 11.1784 117.361 11.465C117.648 11.7517 117.827 12.1507 117.827 12.5891V28.4987C117.824 29.3728 117.114 30.0834 116.24 30.0863C111.969 30.0843 108.626 28.5153 106.752 25.9203L106.671 25.8079L106.59 25.9205C104.723 28.5148 101.394 30.0853 97.1481 30.0863C96.2711 30.0863 95.5576 29.3729 95.5576 28.4959L95.5576 22.2314V22.1314H95.4576ZM102.919 25.2518L102.919 25.2517C103.917 24.4828 104.551 23.4688 104.857 22.2558L104.888 22.1314H104.76H98.8327H98.7327L98.7327 22.2314L98.7323 26.6998L98.7323 26.814L98.8454 26.7989C100.463 26.5844 101.875 26.0559 102.919 25.2518ZM108.583 22.1314H108.453L108.486 22.2567C109.223 25.0703 111.786 26.4278 114.538 26.7974L114.651 26.8126V26.6983V22.2314V22.1314H114.551L108.583 22.1314ZM114.651 14.3867V14.2722L114.538 14.2877C111.8 14.6596 109.249 16.0129 108.498 18.8279L108.465 18.9536H108.595L114.551 18.9536H114.651V18.8536V14.3867ZM98.8473 14.2877L98.7338 14.2722L98.7338 14.3867L98.7334 18.8536L98.7334 18.9536H98.8334H104.745H104.875L104.842 18.8284C104.532 17.6358 103.904 16.6325 102.914 15.8525L102.913 15.852C101.866 15.0418 100.457 14.5069 98.8473 14.2877Z" fill="#B40404" stroke="white" stroke-width="0.2"/>
</g>
<defs>
<clipPath id="clip0_780_258">
<rect width="117" height="80" fill="white" transform="translate(0.5)"/>
</clipPath>
</defs>
</svg>
