<svg width="81" height="80" viewBox="0 0 81 80" fill="none" xmlns="http://www.w3.org/2000/svg">
<path d="M68.0185 51.727L64.5092 49.9727L47.5841 58.4355C45.5724 59.4413 43.0109 59.9955 40.3713 59.996C37.7322 59.996 35.1707 59.4418 33.159 58.436L16.2328 49.9727L12.7236 51.727C10.8335 52.6723 9.75 54.1396 9.75 55.7529C9.75 57.3656 10.834 58.8329 12.7236 59.7777L34.8362 70.8343C36.3884 71.6101 38.3796 71.9983 40.3713 71.9983C42.363 71.9978 44.3546 71.6101 45.9064 70.8343L68.0185 59.7782C69.9086 58.8329 70.9926 57.3661 70.9926 55.7529C70.9926 54.1396 69.9086 52.6723 68.0185 51.727Z" fill="#B40404"/>
<path d="M68.0185 35.9775L64.5092 34.2227L47.5836 42.686C45.5685 43.6938 43.007 44.2484 40.3713 44.2484C37.7356 44.2484 35.1741 43.6938 33.159 42.686L16.2333 34.2227L12.7236 35.9775C10.834 36.9223 9.75 38.3896 9.75 40.0029C9.75 41.6156 10.834 43.0829 12.7236 44.0277L34.8362 55.0843C36.3884 55.8601 38.3796 56.2483 40.3713 56.2483C42.363 56.2478 44.3546 55.8601 45.9064 55.0843L68.0185 44.0282C69.9086 43.0829 70.9926 41.6161 70.9926 40.0029C70.9926 38.3896 69.9081 36.9223 68.0185 35.9775Z" fill="#B40404"/>
<path d="M12.7236 28.2732L34.8362 39.3298C36.3406 40.0822 38.3064 40.4968 40.3713 40.4968C42.4362 40.4968 44.402 40.0822 45.9064 39.3298L68.018 28.2737C69.9081 27.3284 70.9926 25.8616 70.9926 24.2484C70.9926 22.6351 69.9086 21.1678 68.0185 20.2225L45.9069 9.16698C44.402 8.41455 42.4362 8 40.3713 8C38.3064 8 36.3406 8.41455 34.8362 9.16698L12.7236 20.2225C10.8335 21.1678 9.75 22.6351 9.75 24.2484C9.75 25.8616 10.834 27.3284 12.7236 28.2732Z" fill="#B40404"/>
</svg>
