<svg width="40" height="40" viewBox="0 0 40 40" fill="none" xmlns="http://www.w3.org/2000/svg">
<g clip-path="url(#clip0_1631_383)">
<path d="M19.2307 16.6814C19.2307 16.2565 19.5751 15.9122 19.9999 15.9122C20.4248 15.9122 20.7692 16.2565 20.7692 16.6814V27.0953L22.183 25.6422C28.0183 19.6449 27.9519 9.95202 22.0351 4.03511L19.9999 2L17.9648 4.03511C12.0479 9.952 11.9816 19.6449 17.8168 25.6422L19.2307 27.0953V16.6814Z" fill="#B40404"/>
<path d="M9.45608 30.4121C9.15565 30.1118 9.15565 29.6247 9.45608 29.3243C9.75651 29.0239 10.2435 29.0239 10.5439 29.3243L17.6923 36.4727V34.8683C17.6923 26.3851 10.7908 19.4836 2.30769 19.4836H0V22.1759C0 30.6591 6.90151 37.5606 15.3846 37.5606H16.6045L9.45608 30.4121Z" fill="#B40404"/>
<path d="M22.3076 34.8682V36.4727L29.456 29.3243C29.7564 29.0239 30.2434 29.0239 30.5439 29.3243C30.8443 29.6247 30.8443 30.1118 30.5439 30.4121L23.3955 37.5606H24.6153C33.0984 37.5606 39.9999 30.6591 39.9999 22.1759V19.4836H37.6922C29.2091 19.4836 22.3076 26.3851 22.3076 34.8682Z" fill="#B40404"/>
</g>
<defs>
<clipPath id="clip0_1631_383">
<rect width="40" height="40" fill="white"/>
</clipPath>
</defs>
</svg>
