<svg width="40" height="40" viewBox="0 0 40 40" fill="none" xmlns="http://www.w3.org/2000/svg">
<g clip-path="url(#clip0_1631_339)">
<path d="M31.7418 7.04443H29.3935C28.7445 7.04443 28.2192 7.56959 28.2192 8.21865C28.2192 8.86763 28.7444 9.39287 29.3935 9.39287H31.7418C32.3908 9.39287 32.916 8.86771 32.916 8.21865C32.9159 7.56959 32.3908 7.04443 31.7418 7.04443Z" fill="#B40404"/>
<path d="M19.8762 2.99679L18.7021 0.648439C18.4097 0.0682054 17.7068 -0.164529 17.1265 0.123283C16.5463 0.413361 16.3112 1.11859 16.6014 1.69883L17.7756 4.04718C18.0653 4.62507 18.767 4.86249 19.3511 4.57234C19.9312 4.28226 20.1663 3.57703 19.8762 2.99679Z" fill="#B40404"/>
<path d="M27.5703 0.123269C26.9923 -0.164543 26.2849 0.0682695 25.9948 0.648425L24.8206 2.99678C24.5305 3.57701 24.7656 4.28217 25.3457 4.57232C25.9316 4.86326 26.6324 4.6231 26.9213 4.04717L28.0955 1.69881C28.3855 1.11858 28.1505 0.413347 27.5703 0.123269Z" fill="#B40404"/>
<path d="M15.3032 7.04443H12.9549C12.3059 7.04443 11.7806 7.56959 11.7806 8.21865C11.7806 8.86763 12.3058 9.39287 12.9549 9.39287H15.3032C15.9522 9.39287 16.4774 8.86771 16.4774 8.21865C16.4774 7.56959 15.9522 7.04443 15.3032 7.04443Z" fill="#B40404"/>
<path d="M8.25821 18.8647H3.56142C2.91299 18.8647 2.38721 19.3904 2.38721 20.039V38.8258C2.38721 39.4742 2.91291 40 3.56142 40H8.25813C8.90657 40 9.43235 39.4743 9.43235 38.8258V20.0389C9.43235 19.3904 8.90673 18.8647 8.25821 18.8647Z" fill="#B40404"/>
<path d="M37.5894 21.9772C37.3823 20.1557 35.6808 18.8647 33.8476 18.8647H24.6933C25.4713 17.4716 25.8889 13.5315 25.8703 11.922C25.8396 9.2578 23.6333 7.1228 20.969 7.1228H20.0001C19.3511 7.1228 18.8259 7.64796 18.8259 8.29702C18.8259 11.0122 17.7686 15.9132 15.7747 17.9072C14.4326 19.2493 13.2852 19.7357 11.7808 20.4875V38.1061C14.0841 38.8738 17.0086 40 21.4662 40H29.1471C31.678 40 33.6491 37.656 32.6684 35.1795C34.1625 34.7724 35.2644 33.4021 35.2644 31.7807C35.2644 31.3231 35.1761 30.8852 35.0167 30.4827C37.5346 29.7967 38.4614 26.6877 36.7138 24.7356C37.3559 24.0183 37.7099 23.0372 37.5894 21.9772Z" fill="#B40404"/>
</g>
<defs>
<clipPath id="clip0_1631_339">
<rect width="40" height="40" fill="white"/>
</clipPath>
</defs>
</svg>
