<svg width="80" height="80" viewBox="0 0 80 80" fill="none" xmlns="http://www.w3.org/2000/svg">
<path d="M10.7735 40.4379C11.3503 39.8611 12.2858 39.8611 12.8627 40.4379C13.4396 41.0149 13.4396 41.9502 12.8627 42.5271L2.08917 53.3006H5.17041C17.3888 53.3006 27.3292 43.3602 27.3292 31.1418V25.9714H22.1589C9.94047 25.9714 0 35.9118 0 48.1303V51.2115L10.7735 40.4379Z" fill="#B40404"/>
<path d="M20.3756 66.9047C19.7986 66.3279 19.7986 65.3925 20.3756 64.8156C20.9524 64.2387 21.8879 64.2387 22.4647 64.8156L33.2382 75.5891V72.5455C32.7347 62.7742 29.4395 59.8455 29.2261 59.6664C29.0888 59.574 29.0111 59.4874 28.9108 59.3516C26.4354 56.0002 23.1139 53.4412 19.2723 51.9143C15.4433 54.5223 10.8594 56.0999 5.92215 56.2458C6.30697 68.1292 16.0926 77.6783 28.0678 77.6783H31.1491L20.3756 66.9047Z" fill="#B40404"/>
<path d="M38.6744 13.7873C39.2512 13.2105 40.0245 12.9016 40.8435 12.923C41.6259 12.9435 42.3629 13.2974 42.9163 13.8508L50.6717 21.6062C51.2486 22.1832 51.2486 23.1185 50.6717 23.6953L46.7904 27.5766C46.4279 27.9391 46.6847 28.5589 47.1973 28.5589L65.1383 28.5598V12.0963C65.1383 11.5837 64.5186 11.3269 64.156 11.6893L60.2738 15.5704C59.697 16.1475 58.7615 16.1475 58.1847 15.5704L47.8592 5.24504C43.5325 0.918314 36.5174 0.918316 32.1907 5.24507L17.9227 19.513C17.1828 20.2529 17.7249 21.5171 18.771 21.4911L30.4682 21.201C30.7561 21.1938 31.0311 21.0797 31.2394 20.8809L38.6744 13.7873Z" fill="#B40404"/>
<path d="M69.0636 32.5029L58.06 34.2405L67.2629 56.0684C67.7045 57.1925 67.425 58.4928 66.4946 59.3416C65.9369 59.8505 65.1915 60.1033 64.4366 60.1033H51.908C51.0921 60.1033 50.4307 59.4419 50.4307 58.626V53.8516C50.4307 53.061 49.4828 52.6565 48.912 53.2035L37.8064 63.8454C36.9945 64.6234 36.9951 65.9213 37.8077 66.6985L48.1734 76.6134C48.7443 77.1595 49.6914 76.755 49.6915 75.9649L49.6921 71.1827C49.6921 70.3668 50.3534 69.7054 51.1693 69.7054H72.4708C74.8679 69.7054 77.1623 68.6084 78.5728 66.6702C80.0285 64.6699 80.3901 62.1785 79.5665 59.8533L69.0636 32.5029Z" fill="#B40404"/>
</svg>
