<svg width="250" height="250" viewBox="0 0 250 250" fill="none" xmlns="http://www.w3.org/2000/svg">
<path d="M121.834 239.886C122.795 240.271 123.95 240.367 125.008 240.367C126.065 240.367 127.123 240.271 128.18 239.886C226.545 205.463 235.008 73.4439 235.393 67.8668C235.585 63.9242 233.372 60.2709 229.815 58.6358L125.968 10.5589C123.372 9.30885 120.295 9.30885 117.701 10.6551L19.9105 58.7321C16.4502 60.3665 14.3351 64.0204 14.6215 67.8668C14.9103 73.4439 23.373 205.463 121.834 239.886ZM76.9314 120.078C76.9314 118.636 77.699 117.194 78.9502 116.328C80.2954 115.463 81.833 115.271 83.2767 115.751L92.3146 118.924C91.5446 99.0206 98.566 69.1168 130.776 62.0972C132.41 61.8091 134.142 62.2897 135.295 63.5398C136.45 64.6936 136.835 66.4243 136.45 68.0593C136.354 68.3475 129.046 98.2512 142.507 102.771C143.95 102.578 147.988 101.424 150.199 94.9823C150.777 93.1553 152.507 91.809 154.526 91.809C156.448 91.6165 158.277 92.7703 159.141 94.5973L168.371 114.79C175.489 130.367 174.142 148.059 164.911 160.944C148.42 183.99 111.289 185.9 91.6409 166.713C80.9691 156.328 75.9689 140.655 76.9314 120.078Z" fill="#B40404"/>
</svg>
