<svg width="80" height="80" viewBox="0 0 80 80" fill="none" xmlns="http://www.w3.org/2000/svg">
<g clip-path="url(#clip0_780_1383)">
<path d="M77.9699 37.8017L66.4925 34.5219C61.324 33.0647 56.6159 30.3056 52.8187 26.5084C49.0215 22.7112 46.2624 18.0031 44.8052 12.8346L41.5254 1.35723C41.3604 0.955681 41.0798 0.612228 40.7192 0.370519C40.3586 0.12881 39.9343 -0.000244141 39.5002 -0.000244141C39.0661 -0.000244141 38.6418 0.12881 38.2812 0.370519C37.9206 0.612228 37.64 0.955681 37.475 1.35723L34.1952 12.8346C32.7381 18.0031 29.9789 22.7112 26.1817 26.5084C22.3845 30.3056 17.6764 33.0647 12.5079 34.5219L1.03055 37.8017C0.58986 37.9268 0.201998 38.1922 -0.0741844 38.5577C-0.350367 38.9232 -0.499794 39.3688 -0.499794 39.8269C-0.499794 40.285 -0.350367 40.7306 -0.0741844 41.0961C0.201998 41.4616 0.58986 41.727 1.03055 41.8521L12.5079 45.1319C17.6764 46.589 22.3845 49.3482 26.1817 53.1454C29.9789 56.9426 32.7381 61.6507 34.1952 66.8192L37.475 78.2965C37.6001 78.7372 37.8655 79.1251 38.231 79.4013C38.5965 79.6775 39.0421 79.8269 39.5002 79.8269C39.9583 79.8269 40.4039 79.6775 40.7694 79.4013C41.1349 79.1251 41.4003 78.7372 41.5254 78.2965L44.8052 66.8192C46.2624 61.6507 49.0215 56.9426 52.8187 53.1454C56.6159 49.3482 61.324 46.589 66.4925 45.1319L77.9699 41.8521C78.4105 41.727 78.7984 41.4616 79.0746 41.0961C79.3508 40.7306 79.5002 40.285 79.5002 39.8269C79.5002 39.3688 79.3508 38.9232 79.0746 38.5577C78.7984 38.1922 78.4105 37.9268 77.9699 37.8017Z" fill="#B40404"/>
</g>
<defs>
<clipPath id="clip0_780_1383">
<rect width="80" height="80" fill="white"/>
</clipPath>
</defs>
</svg>
