<svg width="81" height="80" viewBox="0 0 81 80" fill="none" xmlns="http://www.w3.org/2000/svg">
<g clip-path="url(#clip0_780_245)">
<path d="M59.7964 11.1992H17.9874C16.6407 11.1992 15.4568 12.0937 15.0869 13.3882L13.4226 19.2394H6.53014V19.0384C6.53014 17.3741 5.17939 16.0233 3.51507 16.0233C1.85075 16.0233 0.5 17.3741 0.5 19.0384V25.4706C0.5 27.1349 1.85075 28.4856 3.51507 28.4856C5.17939 28.4856 6.53014 27.1349 6.53014 25.4706V25.2696H11.706L0.614573 64.2424C0.357287 65.1529 0.538191 66.1318 1.10905 66.8856C1.67789 67.6394 2.57035 68.0836 3.51507 68.0836H21.2035C22.6005 68.0836 23.8125 67.1248 24.1362 65.766L27.8447 50.1942H41.8829C44.2688 54.4796 47.515 58.566 51.8688 61.0524C52.3412 61.324 52.8537 61.4504 53.3623 61.4504C54.4075 61.4504 55.4266 60.9057 55.9814 59.9308C56.8075 58.4856 56.305 56.6442 54.8597 55.8183C46.6929 51.1489 43.1613 38.1457 42.1723 33.7118H59.7964C61.4607 33.7118 62.8115 32.361 62.8115 30.6967V14.2143C62.8115 12.55 61.4607 11.1992 59.7964 11.1992ZM27.8367 21.4525C27.8367 19.7861 29.1874 18.4374 30.8517 18.4374C32.516 18.4374 33.8668 19.7861 33.8668 21.4525C33.8668 23.1168 32.516 24.4675 30.8517 24.4675C29.1874 24.4675 27.8367 23.1168 27.8367 21.4525ZM29.2799 44.164L31.7683 33.7118H36.0095C36.2849 35.157 37.1753 39.356 39.0608 44.164H29.2799Z" fill="#B40404"/>
<path d="M77.4846 19.2413H74.0675V18.8393C74.0675 17.1742 72.7175 15.8242 71.0524 15.8242H68.8413V28.6886H71.0524C72.7175 28.6886 74.0675 27.3387 74.0675 25.6735V25.2715H77.4846C79.1497 25.2715 80.4997 23.9216 80.4997 22.2564C80.4997 20.5913 79.1497 19.2413 77.4846 19.2413Z" fill="#B40404"/>
</g>
<defs>
<clipPath id="clip0_780_245">
<rect width="80" height="80" fill="white" transform="translate(0.5)"/>
</clipPath>
</defs>
</svg>
