<svg width="38" height="40" viewBox="0 0 38 40" fill="none" xmlns="http://www.w3.org/2000/svg">
<path d="M35.1409 7.83964L20.3509 0.408214C19.2667 -0.136071 17.9881 -0.136071 16.9038 0.408214L2.11524 7.83964C0.786668 8.50679 -0.0319037 9.87679 0.00095345 11.3639C0.135239 17.4982 1.89095 33.3296 15.9895 39.4525C17.6695 40.1825 19.5895 40.1825 21.2695 39.4525C35.3667 33.3296 37.1224 17.4982 37.2581 11.3639C37.2895 9.87679 36.4695 8.50679 35.1409 7.83964ZM25.8752 18.3196L23.3595 20.7725C23.1224 21.0039 23.0138 21.3368 23.071 21.6625L23.6652 25.1254C23.8067 25.9468 22.9438 26.5739 22.2067 26.1854L19.0967 24.5511C18.8038 24.3968 18.4538 24.3968 18.161 24.5511L15.051 26.1854C14.3138 26.5725 13.451 25.9468 13.5924 25.1254L14.1867 21.6625C14.2424 21.3368 14.1338 21.0039 13.8981 20.7725L11.3824 18.3196C10.7852 17.7382 11.1152 16.7239 11.9395 16.6039L15.4167 16.0982C15.7438 16.0511 16.0267 15.8454 16.1738 15.5482L17.7281 12.3982C18.0967 11.6511 19.1624 11.6511 19.531 12.3982L21.0852 15.5482C21.2324 15.8454 21.5152 16.0511 21.8424 16.0982L25.3195 16.6039C26.1438 16.7239 26.4724 17.7382 25.8752 18.3196Z" fill="#B40404"/>
</svg>
