<svg width="180" height="52" viewBox="0 0 180 52" fill="none" xmlns="http://www.w3.org/2000/svg">
<g clip-path="url(#clip0_392_13216)">
<path d="M165.436 -7.48647e-05H14.3223C13.7714 -7.48647e-05 13.2272 -7.48646e-05 12.6778 0.00252938C12.218 0.00513363 11.7617 0.012699 11.2975 0.0190663C10.2888 0.0293554 9.28252 0.106278 8.28736 0.249164C7.29359 0.395162 6.33095 0.670408 5.432 1.0656C4.53415 1.46412 3.71376 1.98197 3.00059 2.60035C2.28368 3.217 1.68608 3.92975 1.23076 4.71121C0.774194 5.49112 0.457607 6.32686 0.291937 7.18957C0.124693 8.05119 0.0346966 8.92275 0.0227571 9.79642C0.00881745 10.1956 0.00734538 10.5962 0 10.9955V41.0931C0.00734538 41.4974 0.00881745 41.8891 0.0227571 42.2935C0.0347002 43.1671 0.124696 44.0387 0.291937 44.9002C0.45715 45.7634 0.773755 46.5997 1.23076 47.3799C1.68587 48.1588 2.28356 48.8687 3.00059 49.4819C3.71106 50.103 4.53198 50.6212 5.432 51.0167C6.33094 51.4129 7.29348 51.6898 8.28736 51.8381C9.28269 51.9798 10.2889 52.0568 11.2975 52.0683C11.7617 52.0771 12.218 52.0822 12.6778 52.0822C13.2272 52.0848 13.7715 52.0848 14.3223 52.0848H165.436C165.976 52.0848 166.524 52.0848 167.064 52.0822C167.522 52.0822 167.991 52.0771 168.449 52.0683C169.456 52.0574 170.46 51.9804 171.453 51.8381C172.45 51.6888 173.416 51.412 174.32 51.0167C175.219 50.621 176.039 50.1028 176.749 49.4819C177.464 48.8663 178.063 48.1569 178.524 47.3799C178.977 46.5991 179.291 45.7629 179.454 44.9002C179.621 44.0385 179.714 43.1672 179.732 42.2935C179.738 41.8891 179.738 41.4974 179.738 41.0931C179.75 40.62 179.75 40.1496 179.75 39.6688V12.4171C179.75 11.9403 179.75 11.4672 179.738 10.9955C179.738 10.5962 179.738 10.1956 179.732 9.79636C179.714 8.92262 179.621 8.05126 179.454 7.18952C179.29 6.3273 178.977 5.49163 178.524 4.71116C177.596 3.14481 176.126 1.86981 174.32 1.06548C173.416 0.671257 172.45 0.396083 171.453 0.249047C170.46 0.105531 169.456 0.0285819 168.449 0.018884C167.991 0.0125297 167.522 0.00489924 167.064 0.0023601C166.524 -0.000244141 165.976 -0.000244141 165.436 -0.000244141V-7.48647e-05Z" fill="#A6A6A6"/>
<path d="M12.6853 50.9456C12.2277 50.9456 11.781 50.9405 11.327 50.9317C10.3863 50.921 9.44785 50.85 8.51929 50.7193C7.65345 50.59 6.81469 50.3496 6.03066 50.0058C5.25383 49.665 4.54529 49.218 3.9322 48.6821C3.31023 48.1525 2.79242 47.5383 2.39927 46.8637C2.00179 46.1848 1.72671 45.457 1.58362 44.7058C1.42909 43.8987 1.34548 43.0825 1.33351 42.2643C1.32399 41.9897 1.31152 41.0754 1.31152 41.0754V10.9956C1.31152 10.9956 1.3248 10.0953 1.33359 9.83081C1.34504 9.01397 1.42817 8.19906 1.58224 7.39315C1.7256 6.63989 2.00089 5.91005 2.39858 5.22889C2.79028 4.5548 3.30522 3.94009 3.92344 3.40859C4.54097 2.87204 5.25177 2.42278 6.02993 2.07721C6.81215 1.7346 7.64933 1.49584 8.51342 1.36893C9.44503 1.23685 10.3867 1.16544 11.3307 1.1553L12.6861 1.1394H167.057L168.429 1.15594C169.364 1.16558 170.297 1.23635 171.22 1.36765C172.093 1.49615 172.939 1.73658 173.73 2.08102C175.289 2.77746 176.557 3.87928 177.358 5.23207C177.749 5.90853 178.02 6.63242 178.162 7.37916C178.317 8.19169 178.405 9.013 178.423 9.83654C178.427 10.2053 178.427 10.6014 178.427 10.9956C178.439 11.4839 178.439 11.9487 178.439 12.4173V39.6689C178.439 40.142 178.439 40.6036 178.427 41.069C178.427 41.4924 178.427 41.8803 178.421 42.2796C178.404 43.0884 178.318 43.8951 178.164 44.6931C178.024 45.4497 177.751 46.1831 177.353 46.8676C176.957 47.5348 176.442 48.1438 175.828 48.672C175.214 49.2107 174.504 49.6603 173.726 50.0034C172.937 50.3497 172.092 50.5911 171.22 50.7193C170.292 50.8507 169.353 50.9217 168.412 50.9317C167.972 50.9405 167.512 50.9456 167.064 50.9456L165.436 50.9482L12.6853 50.9456Z" fill="black"/>
<path d="M37.2059 26.4944C37.222 25.2407 37.5551 24.0114 38.174 22.9209C38.7929 21.8304 39.6776 20.9142 40.7457 20.2575C40.0672 19.2884 39.172 18.4909 38.1313 17.9283C37.0906 17.3656 35.933 17.0534 34.7505 17.0164C32.2281 16.7517 29.7827 18.5258 28.4973 18.5258C27.1871 18.5258 25.208 17.0427 23.0769 17.0866C21.6985 17.1311 20.355 17.532 19.1776 18.2501C18.0001 18.9682 17.0287 19.979 16.3581 21.1842C13.4529 26.2139 15.6199 33.6059 18.4027 37.6716C19.7951 39.6624 21.4223 41.8862 23.5515 41.8074C25.635 41.721 26.4132 40.4788 28.9282 40.4788C31.4198 40.4788 32.1499 41.8074 34.3223 41.7572C36.558 41.7209 37.9666 39.7575 39.3101 37.7479C40.3105 36.3293 41.0802 34.7615 41.5909 33.1025C40.292 32.5532 39.1836 31.6336 38.4038 30.4585C37.624 29.2834 37.2074 27.9047 37.2059 26.4944Z" fill="white"/>
<path d="M33.1028 14.3422C34.3218 12.8788 34.9224 10.9979 34.7769 9.09888C32.9146 9.29448 31.1942 10.1846 29.9588 11.5918C29.3547 12.2793 28.8921 13.0791 28.5973 13.9454C28.3025 14.8118 28.1813 15.7278 28.2408 16.641C29.1723 16.6506 30.0939 16.4487 30.936 16.0505C31.7782 15.6523 32.5191 15.0682 33.1028 14.3422Z" fill="white"/>
<path d="M63.5431 36.7673H56.4329L54.7254 41.8091H51.7139L58.4485 23.1558H61.5774L68.312 41.8091H65.2491L63.5431 36.7673ZM57.1693 34.4408H62.8053L60.0269 26.2583H59.9492L57.1693 34.4408Z" fill="white"/>
<path d="M82.8565 35.0101C82.8565 39.2363 80.5945 41.9516 77.181 41.9516C76.3163 41.9968 75.4564 41.7976 74.6996 41.3768C73.9428 40.956 73.3199 40.3306 72.902 39.5722H72.8374V46.3083H70.0459V28.2095H72.748V30.4715H72.7993C73.2364 29.7167 73.8699 29.0946 74.6324 28.6712C75.3949 28.2478 76.258 28.0391 77.1297 28.0672C80.5813 28.0672 82.8565 30.7957 82.8565 35.0101ZM79.9872 35.0101C79.9872 32.2567 78.5643 30.4466 76.3933 30.4466C74.2604 30.4466 72.8257 32.2949 72.8257 35.0101C72.8257 37.7503 74.2604 39.5854 76.3933 39.5854C78.5643 39.5854 79.9872 37.7885 79.9872 35.0101Z" fill="white"/>
<path d="M97.8248 35.0101C97.8248 39.2363 95.5628 41.9516 92.1493 41.9516C91.2846 41.9968 90.4246 41.7976 89.6679 41.3768C88.9111 40.956 88.2881 40.3306 87.8703 39.5722H87.8057V46.3083H85.0142V28.2095H87.7162V30.4715H87.7675C88.2046 29.7167 88.8381 29.0945 89.6006 28.6712C90.3631 28.2478 91.2262 28.0391 92.0979 28.0672C95.5496 28.0672 97.8248 30.7957 97.8248 35.0101ZM94.9555 35.0101C94.9555 32.2567 93.5326 30.4465 91.3615 30.4465C89.2286 30.4465 87.794 32.2949 87.794 35.0101C87.794 37.7503 89.2286 39.5854 91.3615 39.5854C93.5326 39.5854 94.9555 37.7885 94.9555 35.0101H94.9555Z" fill="white"/>
<path d="M107.718 36.6118C107.925 38.4616 109.722 39.6761 112.177 39.6761C114.53 39.6761 116.223 38.4615 116.223 36.7936C116.223 35.3458 115.202 34.4789 112.785 33.8847L110.367 33.3024C106.942 32.475 105.352 30.8732 105.352 28.2738C105.352 25.0554 108.157 22.8447 112.139 22.8447C116.081 22.8447 118.783 25.0554 118.874 28.2738H116.056C115.887 26.4123 114.348 25.2886 112.1 25.2886C109.851 25.2886 108.312 26.4255 108.312 28.0802C108.312 29.3989 109.295 30.1749 111.699 30.769L113.754 31.2736C117.581 32.1787 119.172 33.716 119.172 36.4445C119.172 39.9342 116.392 42.12 111.97 42.12C107.834 42.12 105.041 39.9856 104.86 36.6117L107.718 36.6118Z" fill="white"/>
<path d="M125.196 24.9907V28.2091H127.782V30.4198H125.196V37.9172C125.196 39.0819 125.714 39.6247 126.851 39.6247C127.158 39.6193 127.464 39.5978 127.769 39.5601V41.7575C127.258 41.853 126.739 41.8963 126.219 41.8866C123.465 41.8866 122.391 40.8524 122.391 38.2149V30.4198H120.414V28.2091H122.391V24.9907H125.196Z" fill="white"/>
<path d="M129.28 35.0098C129.28 30.7309 131.8 28.042 135.73 28.042C139.673 28.042 142.181 30.7308 142.181 35.0098C142.181 39.3006 139.686 41.9777 135.73 41.9777C131.775 41.9777 129.28 39.3006 129.28 35.0098ZM139.337 35.0098C139.337 32.0745 137.992 30.3421 135.73 30.3421C133.468 30.3421 132.124 32.0877 132.124 35.0098C132.124 37.9569 133.468 39.6761 135.73 39.6761C137.992 39.6761 139.337 37.9569 139.337 35.0098H139.337Z" fill="white"/>
<path d="M144.483 28.2094H147.145V30.5241H147.21C147.39 29.8012 147.814 29.1623 148.409 28.7148C149.005 28.2674 149.737 28.0386 150.481 28.0671C150.803 28.0659 151.124 28.1009 151.438 28.1712V30.7823C151.031 30.6582 150.608 30.6012 150.183 30.6136C149.778 30.5972 149.374 30.6687 148.998 30.8232C148.623 30.9778 148.286 31.2117 148.009 31.509C147.733 31.8062 147.524 32.1598 147.397 32.5453C147.27 32.9309 147.229 33.3393 147.274 33.7426V41.8091H144.483L144.483 28.2094Z" fill="white"/>
<path d="M164.308 37.8146C163.933 40.2834 161.529 41.9777 158.452 41.9777C154.496 41.9777 152.041 39.327 152.041 35.0744C152.041 30.8086 154.509 28.042 158.335 28.042C162.098 28.042 164.464 30.6267 164.464 34.7502V35.7066H154.858V35.8753C154.814 36.3758 154.877 36.88 155.042 37.3545C155.208 37.8289 155.472 38.2627 155.818 38.627C156.164 38.9914 156.584 39.2779 157.049 39.4676C157.515 39.6574 158.015 39.7459 158.517 39.7274C159.177 39.7892 159.839 39.6365 160.405 39.2918C160.97 38.9472 161.41 38.4291 161.658 37.8146L164.308 37.8146ZM154.872 33.7556H161.671C161.696 33.3056 161.628 32.8552 161.47 32.4328C161.313 32.0104 161.07 31.6251 160.757 31.301C160.444 30.9769 160.067 30.721 159.65 30.5494C159.233 30.3779 158.786 30.2943 158.335 30.304C157.88 30.3013 157.43 30.3886 157.009 30.561C156.589 30.7333 156.206 30.9873 155.884 31.3082C155.562 31.6291 155.307 32.0106 155.133 32.4306C154.959 32.8507 154.871 33.301 154.872 33.7556V33.7556Z" fill="white"/>
<path d="M56.8195 9.11491C57.4048 9.07291 57.992 9.16132 58.539 9.37377C59.0859 9.58622 59.5789 9.91741 59.9823 10.3435C60.3858 10.7695 60.6896 11.2798 60.872 11.8375C61.0544 12.3951 61.1107 12.9864 61.0369 13.5685C61.0369 16.4319 59.4893 18.0778 56.8195 18.0778H53.582V9.11491H56.8195ZM54.9741 16.8103H56.664C57.0822 16.8353 57.5007 16.7667 57.8891 16.6096C58.2774 16.4524 58.6259 16.2107 58.909 15.9019C59.1921 15.5931 59.4029 15.2251 59.5258 14.8246C59.6488 14.4241 59.6809 14.0012 59.6198 13.5867C59.6765 13.1739 59.6411 12.7536 59.5163 12.3561C59.3914 11.9585 59.1802 11.5935 58.8977 11.2872C58.6152 10.9808 58.2684 10.7408 57.8822 10.5842C57.4961 10.4276 57.0801 10.3584 56.664 10.3815H54.9741V16.8103Z" fill="white"/>
<path d="M62.6088 14.6929C62.5663 14.2484 62.6172 13.7999 62.7581 13.3762C62.8991 12.9525 63.127 12.5629 63.4274 12.2325C63.7277 11.902 64.0938 11.638 64.5022 11.4573C64.9105 11.2767 65.3521 11.1833 65.7986 11.1833C66.2452 11.1833 66.6868 11.2767 67.0951 11.4573C67.5035 11.638 67.8696 11.902 68.1699 12.2325C68.4703 12.5629 68.6982 12.9525 68.8392 13.3762C68.9801 13.7999 69.031 14.2484 68.9885 14.6929C69.0318 15.1378 68.9815 15.5869 68.841 16.0113C68.7004 16.4357 68.4725 16.826 68.1721 17.1571C67.8717 17.4882 67.5054 17.7527 67.0966 17.9338C66.6878 18.1149 66.2457 18.2084 65.7986 18.2084C65.3516 18.2084 64.9095 18.1149 64.5007 17.9338C64.0919 17.7527 63.7256 17.4882 63.4252 17.1571C63.1247 16.826 62.8969 16.4357 62.7563 16.0113C62.6158 15.5869 62.5655 15.1378 62.6088 14.6929ZM67.6154 14.6929C67.6154 13.2267 66.9568 12.3693 65.8008 12.3693C64.6405 12.3693 63.9878 13.2267 63.9878 14.6929C63.9878 16.1708 64.6406 17.0216 65.8008 17.0216C66.9568 17.0216 67.6154 16.1649 67.6154 14.6929H67.6154Z" fill="white"/>
<path d="M77.4691 18.0777H76.0843L74.6864 13.096H74.5808L73.1887 18.0777H71.8171L69.9526 11.3137H71.3066L72.5183 16.475H72.618L74.0087 11.3137H75.2893L76.6799 16.475H76.7855L77.9913 11.3137H79.3262L77.4691 18.0777Z" fill="white"/>
<path d="M80.8945 11.314H82.1795V12.3885H82.2793C82.4485 12.0026 82.7339 11.6791 83.0958 11.463C83.4576 11.247 83.8778 11.1493 84.2978 11.1834C84.6269 11.1587 84.9574 11.2083 85.2647 11.3286C85.572 11.4489 85.8483 11.6368 86.0732 11.8785C86.298 12.1201 86.4656 12.4092 86.5636 12.7243C86.6615 13.0395 86.6873 13.3727 86.639 13.6992V18.0779H85.3041V14.0344C85.3041 12.9474 84.8317 12.4068 83.8445 12.4068C83.6211 12.3964 83.398 12.4345 83.1906 12.5183C82.9832 12.6022 82.7964 12.7299 82.643 12.8927C82.4896 13.0555 82.3732 13.2496 82.3019 13.4616C82.2305 13.6736 82.2058 13.8985 82.2294 14.1209V18.0779H80.8945L80.8945 11.314Z" fill="white"/>
<path d="M88.7661 8.67334H90.101V18.0777H88.7661V8.67334Z" fill="white"/>
<path d="M91.956 14.693C91.9135 14.2485 91.9644 13.8 92.1054 13.3762C92.2463 12.9525 92.4743 12.5629 92.7747 12.2325C93.0751 11.902 93.4412 11.638 93.8496 11.4573C94.258 11.2767 94.6996 11.1833 95.1462 11.1833C95.5927 11.1833 96.0343 11.2767 96.4427 11.4573C96.8511 11.638 97.2172 11.902 97.5176 12.2325C97.818 12.5629 98.0459 12.9525 98.1869 13.3762C98.3279 13.8 98.3788 14.2485 98.3363 14.693C98.3796 15.138 98.3293 15.5871 98.1887 16.0115C98.048 16.4359 97.8202 16.8261 97.5197 17.1572C97.2193 17.4883 96.8529 17.7529 96.4441 17.9339C96.0354 18.115 95.5932 18.2085 95.1462 18.2085C94.6991 18.2085 94.2569 18.115 93.8482 17.9339C93.4394 17.7529 93.073 17.4883 92.7725 17.1572C92.4721 16.8261 92.2442 16.4359 92.1036 16.0115C91.963 15.5871 91.9127 15.138 91.956 14.693ZM96.9625 14.693C96.9625 13.2268 96.3039 12.3694 95.148 12.3694C93.9876 12.3694 93.3349 13.2268 93.3349 14.693C93.3349 16.1709 93.9877 17.0217 95.148 17.0217C96.3039 17.0217 96.9626 16.165 96.9626 14.693H96.9625Z" fill="white"/>
<path d="M99.7422 16.165C99.7422 14.9474 100.649 14.2455 102.258 14.1458L104.09 14.0402V13.4563C104.09 12.7419 103.618 12.3385 102.705 12.3385C101.96 12.3385 101.444 12.6121 101.296 13.0903H100.003C100.14 11.9285 101.233 11.1833 102.767 11.1833C104.463 11.1833 105.419 12.0275 105.419 13.4563V18.0778H104.134V17.1273H104.029C103.814 17.4683 103.513 17.7462 103.156 17.9328C102.799 18.1194 102.399 18.2079 101.997 18.1893C101.713 18.2188 101.426 18.1885 101.154 18.1004C100.883 18.0122 100.633 17.8681 100.42 17.6774C100.208 17.4866 100.038 17.2535 99.921 16.993C99.8042 16.7325 99.7433 16.4505 99.7422 16.165ZM104.09 15.587V15.0215L102.438 15.1271C101.507 15.1895 101.084 15.5063 101.084 16.1026C101.084 16.7114 101.612 17.0657 102.339 17.0657C102.551 17.0872 102.766 17.0657 102.971 17.0025C103.175 16.9393 103.364 16.8356 103.528 16.6976C103.691 16.5597 103.825 16.3903 103.922 16.1995C104.018 16.0087 104.076 15.8004 104.09 15.587Z" fill="white"/>
<path d="M107.173 14.6929C107.173 12.5556 108.272 11.2016 109.981 11.2016C110.404 11.1821 110.823 11.2834 111.191 11.4935C111.558 11.7036 111.858 12.014 112.055 12.3883H112.155V8.67334H113.49V18.0777H112.211V17.0091H112.105C111.892 17.3808 111.582 17.6873 111.208 17.8953C110.833 18.1034 110.409 18.205 109.981 18.1892C108.26 18.1893 107.173 16.8353 107.173 14.6929ZM108.552 14.6929C108.552 16.1275 109.229 16.9908 110.36 16.9908C111.485 16.9908 112.18 16.115 112.18 14.6987C112.18 13.289 111.477 12.4008 110.36 12.4008C109.236 12.4008 108.552 13.2699 108.552 14.6929H108.552Z" fill="white"/>
<path d="M119.013 14.6929C118.97 14.2484 119.021 13.7999 119.162 13.3762C119.303 12.9525 119.531 12.5629 119.831 12.2325C120.132 11.902 120.498 11.638 120.906 11.4573C121.314 11.2767 121.756 11.1833 122.202 11.1833C122.649 11.1833 123.091 11.2767 123.499 11.4573C123.907 11.638 124.273 11.902 124.574 12.2325C124.874 12.5629 125.102 12.9525 125.243 13.3762C125.384 13.7999 125.435 14.2484 125.392 14.6929C125.436 15.1378 125.385 15.5869 125.245 16.0113C125.104 16.4357 124.876 16.826 124.576 17.1571C124.276 17.4882 123.909 17.7527 123.5 17.9338C123.092 18.1149 122.65 18.2084 122.202 18.2084C121.755 18.2084 121.313 18.1149 120.904 17.9338C120.496 17.7527 120.129 17.4882 119.829 17.1571C119.529 16.826 119.301 16.4357 119.16 16.0113C119.02 15.5869 118.969 15.1378 119.013 14.6929ZM124.019 14.6929C124.019 13.2267 123.361 12.3693 122.205 12.3693C121.044 12.3693 120.392 13.2267 120.392 14.6929C120.392 16.1708 121.044 17.0216 122.205 17.0216C123.361 17.0216 124.019 16.1649 124.019 14.6929Z" fill="white"/>
<path d="M127.184 11.3137H128.469V12.3882H128.569C128.738 12.0023 129.023 11.6788 129.385 11.4628C129.747 11.2468 130.167 11.149 130.587 11.1832C130.916 11.1584 131.247 11.2081 131.554 11.3284C131.862 11.4487 132.138 11.6366 132.363 11.8782C132.588 12.1198 132.755 12.4089 132.853 12.7241C132.951 13.0393 132.977 13.3724 132.929 13.6989V18.0776H131.594V14.0341C131.594 12.9472 131.121 12.4066 130.134 12.4066C129.911 12.3962 129.688 12.4342 129.48 12.5181C129.273 12.6019 129.086 12.7297 128.933 12.8925C128.779 13.0553 128.663 13.2493 128.591 13.4613C128.52 13.6733 128.495 13.8982 128.519 14.1207V18.0777H127.184V11.3137Z" fill="white"/>
<path d="M140.471 9.62988V11.3447H141.937V12.4691H140.471V15.9472C140.471 16.6557 140.763 16.9659 141.428 16.9659C141.598 16.9654 141.768 16.9551 141.937 16.9351V18.047C141.697 18.0899 141.454 18.1127 141.211 18.1152C139.726 18.1152 139.135 17.593 139.135 16.2889V12.469H138.061V11.3446H139.135V9.62988H140.471Z" fill="white"/>
<path d="M143.76 8.67334H145.083V12.4008H145.189C145.366 12.0112 145.659 11.6859 146.028 11.4691C146.397 11.2522 146.824 11.1545 147.251 11.1891C147.578 11.1713 147.906 11.226 148.209 11.3492C148.513 11.4724 148.786 11.6612 149.009 11.9021C149.231 12.1429 149.398 12.4299 149.497 12.7425C149.595 13.0552 149.624 13.3858 149.58 13.7107V18.0777H148.244V14.04C148.244 12.9597 147.741 12.4125 146.798 12.4125C146.568 12.3937 146.338 12.4252 146.122 12.5049C145.906 12.5846 145.71 12.7105 145.547 12.8739C145.385 13.0372 145.261 13.234 145.182 13.4505C145.104 13.667 145.074 13.898 145.095 14.1273V18.0777H143.76L143.76 8.67334Z" fill="white"/>
<path d="M157.365 16.2517C157.183 16.8698 156.79 17.4046 156.254 17.7623C155.719 18.12 155.074 18.278 154.434 18.2085C153.988 18.2203 153.545 18.1349 153.136 17.9584C152.727 17.7818 152.361 17.5183 152.063 17.1862C151.766 16.854 151.545 16.4611 151.414 16.0348C151.284 15.6084 151.248 15.1589 151.309 14.7173C151.25 14.2743 151.286 13.8238 151.416 13.3962C151.546 12.9686 151.766 12.5738 152.062 12.2388C152.358 11.9037 152.722 11.636 153.13 11.454C153.538 11.2719 153.981 11.1797 154.428 11.1835C156.31 11.1835 157.445 12.4693 157.445 14.5933V15.0591H152.669V15.1339C152.648 15.3821 152.679 15.6319 152.761 15.8674C152.842 16.1029 152.971 16.3187 153.141 16.5012C153.311 16.6836 153.517 16.8286 153.745 16.9268C153.974 17.0251 154.221 17.0744 154.47 17.0716C154.79 17.1099 155.113 17.0525 155.4 16.9064C155.686 16.7604 155.923 16.5325 156.08 16.2516L157.365 16.2517ZM152.669 14.0718H156.085C156.102 13.8448 156.071 13.6168 155.995 13.4024C155.918 13.188 155.798 12.992 155.641 12.827C155.484 12.662 155.295 12.5316 155.084 12.4442C154.874 12.3568 154.648 12.3144 154.42 12.3196C154.19 12.3167 153.96 12.36 153.747 12.4471C153.533 12.5341 153.338 12.6631 153.175 12.8264C153.012 12.9897 152.883 13.184 152.796 13.3979C152.709 13.6118 152.666 13.8409 152.669 14.0718H152.669Z" fill="white"/>
</g>
<defs>
<clipPath id="clip0_392_13216">
<rect width="180" height="52" fill="white"/>
</clipPath>
</defs>
</svg>
