<svg width="180" height="52" viewBox="0 0 180 52" fill="none" xmlns="http://www.w3.org/2000/svg">
<g id="googleplay">
<path id="path14" d="M173.095 52H6.6575C2.99754 52 0 49.0734 0 45.5V6.5C0 2.92663 2.99754 2.74817e-06 6.6575 2.74817e-06H173.095C176.755 2.74817e-06 179.753 2.92663 179.753 6.5V45.5C179.753 49.0734 176.755 52 173.095 52Z" fill="black"/>
<path id="path16" d="M173.095 1.04162C176.177 1.04162 178.686 3.4905 178.686 6.5V45.5C178.686 48.5095 176.177 50.9584 173.095 50.9584H6.6575C3.57508 50.9584 1.06686 48.5095 1.06686 45.5V6.5C1.06686 3.4905 3.57508 1.04162 6.6575 1.04162H173.095ZM173.095 2.74817e-06H6.6575C2.99754 2.74817e-06 0 2.92663 0 6.5V45.5C0 49.0734 2.99754 52 6.6575 52H173.095C176.755 52 179.753 49.0734 179.753 45.5V6.5C179.753 2.92663 176.755 2.74817e-06 173.095 2.74817e-06Z" fill="#A6A6A6"/>
<g id="g18">
<path id="path20" d="M63.1361 13.3169C63.1361 14.4024 62.8032 15.2718 62.1475 15.9202C61.3935 16.6888 60.4115 17.0756 59.2082 17.0756C58.0581 17.0756 57.0761 16.6823 56.2705 15.9072C55.4633 15.1207 55.0605 14.1554 55.0605 13.0001C55.0605 11.8447 55.4633 10.8794 56.2705 10.0994C57.0761 9.31781 58.0581 8.92456 59.2082 8.92456C59.7807 8.92456 60.3266 9.03994 60.8476 9.25444C61.3669 9.47056 61.7896 9.76306 62.0959 10.1238L61.4002 10.8096C60.8659 10.1937 60.1386 9.88981 59.2082 9.88981C58.3693 9.88981 57.642 10.1758 57.0245 10.7527C56.4137 11.3312 56.1074 12.0803 56.1074 13.0001C56.1074 13.9198 56.4137 14.6754 57.0245 15.2539C57.642 15.8243 58.3693 16.1168 59.2082 16.1168C60.0986 16.1168 60.8476 15.8243 61.4384 15.2474C61.8279 14.8656 62.0493 14.3391 62.1075 13.6663H59.2082V12.7271H63.0762C63.1228 12.9302 63.1361 13.1268 63.1361 13.3169Z" fill="white" stroke="white" stroke-width="0.16" stroke-miterlimit="10"/>
</g>
<g id="g22">
<path id="path24" d="M69.273 10.0604H65.6397V12.5304H68.9152V13.4696H65.6397V15.9396H69.273V16.8968H64.6111V9.10327H69.273V10.0604Z" fill="white" stroke="white" stroke-width="0.16" stroke-miterlimit="10"/>
</g>
<g id="g26">
<path id="path28" d="M73.6036 16.8968H72.575V10.0604H70.3464V9.10327H75.8339V10.0604H73.6036V16.8968Z" fill="white" stroke="white" stroke-width="0.16" stroke-miterlimit="10"/>
</g>
<g id="g30">
<path id="path32" d="M79.8047 16.8968V9.10327H80.8316V16.8968H79.8047Z" fill="white" stroke="white" stroke-width="0.16" stroke-miterlimit="10"/>
</g>
<g id="g34">
<path id="path36" d="M85.3841 16.8968H84.3639V10.0604H82.127V9.10327H87.621V10.0604H85.3841V16.8968Z" fill="white" stroke="white" stroke-width="0.16" stroke-miterlimit="10"/>
</g>
<g id="g38">
<path id="path40" d="M98.0102 15.8942C97.2229 16.6823 96.2476 17.0756 95.0842 17.0756C93.9141 17.0756 92.9388 16.6823 92.1516 15.8942C91.366 15.1077 90.9749 14.1424 90.9749 13.0001C90.9749 11.8577 91.366 10.8924 92.1516 10.1059C92.9388 9.31781 93.9141 8.92456 95.0842 8.92456C96.2409 8.92456 97.2163 9.31781 98.0035 10.1124C98.7958 10.9054 99.1869 11.8642 99.1869 13.0001C99.1869 14.1424 98.7958 15.1077 98.0102 15.8942ZM92.9122 15.2409C93.5047 15.8243 94.2254 16.1168 95.0842 16.1168C95.9364 16.1168 96.6637 15.8243 97.2496 15.2409C97.8404 14.6576 98.14 13.9084 98.14 13.0001C98.14 12.0917 97.8404 11.3426 97.2496 10.7592C96.6637 10.1758 95.9364 9.88331 95.0842 9.88331C94.2254 9.88331 93.5047 10.1758 92.9122 10.7592C92.3213 11.3426 92.0217 12.0917 92.0217 13.0001C92.0217 13.9084 92.3213 14.6576 92.9122 15.2409Z" fill="white" stroke="white" stroke-width="0.16" stroke-miterlimit="10"/>
</g>
<g id="g42">
<path id="path44" d="M100.63 16.8968V9.10327H101.878L105.759 15.1645H105.804L105.759 13.6663V9.10327H106.786V16.8968H105.715L101.65 10.5365H101.605L101.65 12.0413V16.8968H100.63Z" fill="white" stroke="white" stroke-width="0.16" stroke-miterlimit="10"/>
</g>
<path id="path46" d="M90.7218 28.2783C87.5944 28.2783 85.0396 30.602 85.0396 33.8082C85.0396 36.9883 87.5944 39.3364 90.7218 39.3364C93.8558 39.3364 96.4106 36.9883 96.4106 33.8082C96.4106 30.602 93.8558 28.2783 90.7218 28.2783ZM90.7218 37.1589C89.0058 37.1589 87.5295 35.776 87.5295 33.8082C87.5295 31.8143 89.0058 30.4558 90.7218 30.4558C92.4377 30.4558 93.9207 31.8143 93.9207 33.8082C93.9207 35.776 92.4377 37.1589 90.7218 37.1589ZM78.3238 28.2783C75.1898 28.2783 72.6417 30.602 72.6417 33.8082C72.6417 36.9883 75.1898 39.3364 78.3238 39.3364C81.4562 39.3364 84.006 36.9883 84.006 33.8082C84.006 30.602 81.4562 28.2783 78.3238 28.2783ZM78.3238 37.1589C76.6062 37.1589 75.1249 35.776 75.1249 33.8082C75.1249 31.8143 76.6062 30.4558 78.3238 30.4558C80.0398 30.4558 81.5161 31.8143 81.5161 33.8082C81.5161 35.776 80.0398 37.1589 78.3238 37.1589ZM63.5708 29.9732V32.3229H69.3179C69.1498 33.6359 68.7004 34.6012 68.0114 35.2739C67.1725 36.0864 65.866 36.9883 63.5708 36.9883C60.034 36.9883 57.2645 34.2014 57.2645 30.7483C57.2645 27.2952 60.034 24.5083 63.5708 24.5083C65.4832 24.5083 66.8746 25.2379 67.9015 26.1837L69.5975 24.5278C68.1612 23.1888 66.2505 22.1602 63.5708 22.1602C58.7208 22.1602 54.6448 26.013 54.6448 30.7483C54.6448 35.4835 58.7208 39.3364 63.5708 39.3364C66.1922 39.3364 68.1612 38.4979 69.709 36.9249C71.2952 35.3763 71.7895 33.1988 71.7895 31.4405C71.7895 30.8945 71.7429 30.3924 71.6597 29.9732H63.5708ZM123.898 31.7948C123.43 30.5582 121.987 28.2783 119.048 28.2783C116.135 28.2783 113.71 30.5192 113.71 33.8082C113.71 36.9054 116.11 39.3364 119.327 39.3364C121.929 39.3364 123.43 37.7878 124.048 36.8859L122.117 35.6298C121.473 36.5495 120.596 37.1589 119.327 37.1589C118.067 37.1589 117.164 36.595 116.584 35.4835L124.159 32.4237L123.898 31.7948ZM116.175 33.6359C116.11 31.5039 117.871 30.4119 119.133 30.4119C120.121 30.4119 120.96 30.8945 121.24 31.5852L116.175 33.6359ZM110.019 39H112.508V22.75H110.019V39ZM105.941 29.51H105.858C105.298 28.8633 104.232 28.2783 102.88 28.2783C100.044 28.2783 97.4508 30.7093 97.4508 33.826C97.4508 36.9249 100.044 39.3364 102.88 39.3364C104.232 39.3364 105.298 38.7465 105.858 38.0803H105.941V38.8733C105.941 40.9874 104.784 42.1233 102.918 42.1233C101.397 42.1233 100.453 41.0508 100.064 40.1489L97.8986 41.0313C98.5227 42.497 100.175 44.3008 102.918 44.3008C105.838 44.3008 108.301 42.6238 108.301 38.5434V28.6147H105.941V29.51ZM103.093 37.1589C101.377 37.1589 99.9407 35.7565 99.9407 33.826C99.9407 31.8777 101.377 30.4558 103.093 30.4558C104.784 30.4558 106.117 31.8777 106.117 33.826C106.117 35.7565 104.784 37.1589 103.093 37.1589ZM135.555 22.75H129.6V39H132.083V32.8429H135.555C138.313 32.8429 141.018 30.8945 141.018 27.7957C141.018 24.6984 138.306 22.75 135.555 22.75ZM135.62 30.5825H132.083V25.0104H135.62C137.474 25.0104 138.533 26.5135 138.533 27.7957C138.533 29.0534 137.474 30.5825 135.62 30.5825ZM150.97 28.2474C149.176 28.2474 147.311 29.0209 146.543 30.7353L148.747 31.6372C149.221 30.7353 150.093 30.4428 151.015 30.4428C152.304 30.4428 153.61 31.1984 153.63 32.5325V32.7032C153.181 32.4497 152.219 32.0743 151.035 32.0743C148.662 32.0743 146.244 33.3499 146.244 35.7305C146.244 37.908 148.188 39.3104 150.373 39.3104C152.044 39.3104 152.966 38.5743 153.545 37.7179H153.63V38.974H156.029V32.7405C156.029 29.8594 153.825 28.2474 150.97 28.2474ZM150.671 37.1524C149.859 37.1524 148.727 36.7592 148.727 35.776C148.727 34.5183 150.138 34.0357 151.36 34.0357C152.453 34.0357 152.966 34.2713 153.63 34.5817C153.435 36.0864 152.109 37.1524 150.671 37.1524ZM164.766 28.6033L161.912 35.6477H161.827L158.876 28.6033H156.198L160.632 38.4475L158.102 43.9254H160.697L167.529 28.6033H164.766ZM142.382 39H144.872V22.75H142.382V39Z" fill="white"/>
<g id="g48">
<path id="path64" d="M13.8938 9.80044C13.5027 10.2002 13.2764 10.8226 13.2764 11.6286V40.3781C13.2764 41.1841 13.5027 41.8064 13.8938 42.2062L13.9904 42.2939L30.491 26.1902V25.8099L13.9904 9.7062L13.8938 9.80044Z" fill="url(#paint0_linear_181_999)"/>
</g>
<g id="g66">
<path id="path78" d="M35.9856 31.5608L30.4915 26.1902V25.8099L35.9922 20.4393L36.1154 20.5092L42.6297 24.128C44.4889 25.155 44.4889 26.845 42.6297 27.8785L36.1154 31.4909L35.9856 31.5608Z" fill="url(#paint1_linear_181_999)"/>
</g>
<g id="g80">
<path id="path88" d="M36.1156 31.491L30.4917 26.0001L13.8945 42.2062C14.512 42.84 15.519 42.9163 16.6641 42.2826L36.1156 31.491Z" fill="url(#paint2_linear_181_999)"/>
</g>
<g id="g90">
<path id="path104" d="M36.1156 20.5091L16.6641 9.71751C15.519 9.09025 14.512 9.16663 13.8945 9.80038L30.4917 26L36.1156 20.5091Z" fill="url(#paint3_linear_181_999)"/>
</g>
</g>
<defs>
<linearGradient id="paint0_linear_181_999" x1="29.0259" y1="40.6775" x2="7.21508" y2="18.3381" gradientUnits="userSpaceOnUse">
<stop stop-color="#00A0FF"/>
<stop offset="0.0066" stop-color="#00A1FF"/>
<stop offset="0.2601" stop-color="#00BEFF"/>
<stop offset="0.5122" stop-color="#00D2FF"/>
<stop offset="0.7604" stop-color="#00DFFF"/>
<stop offset="1" stop-color="#00E3FF"/>
</linearGradient>
<linearGradient id="paint1_linear_181_999" x1="45.0506" y1="25.9982" x2="12.8324" y2="25.9982" gradientUnits="userSpaceOnUse">
<stop stop-color="#FFE000"/>
<stop offset="0.4087" stop-color="#FFBD00"/>
<stop offset="0.7754" stop-color="#FFA500"/>
<stop offset="1" stop-color="#FF9C00"/>
</linearGradient>
<linearGradient id="paint2_linear_181_999" x1="33.0575" y1="23.0152" x2="3.48018" y2="-7.27884" gradientUnits="userSpaceOnUse">
<stop stop-color="#FF3A44"/>
<stop offset="1" stop-color="#C31162"/>
</linearGradient>
<linearGradient id="paint3_linear_181_999" x1="9.71668" y1="51.7709" x2="22.9243" y2="38.2434" gradientUnits="userSpaceOnUse">
<stop stop-color="#32A071"/>
<stop offset="0.0685" stop-color="#2DA771"/>
<stop offset="0.4762" stop-color="#15CF74"/>
<stop offset="0.8009" stop-color="#06E775"/>
<stop offset="1" stop-color="#00F076"/>
</linearGradient>
</defs>
</svg>
