<svg width="40" height="40" viewBox="0 0 40 40" fill="none" xmlns="http://www.w3.org/2000/svg">
<g id="money" clip-path="url(#clip0_181_1035)">
<g id="Group">
<g id="Group_2">
<path id="Vector" d="M0.545252 20.0519C0.115267 20.2102 -0.106366 20.6869 0.0502694 21.1185L0.57361 22.5584L4.55839 18.5736L0.545252 20.0519Z" fill="#B40404"/>
</g>
</g>
<g id="Group_3">
<g id="Group_4">
<path id="Vector_2" d="M4.31641 32.8513L6.71632 39.4511C6.79132 39.6594 6.94795 39.8294 7.14795 39.9211C7.25958 39.9727 7.37958 39.9994 7.49958 39.9994C7.59793 39.9994 7.69457 39.9828 7.78793 39.9478L10.4362 38.9712L4.31641 32.8513Z" fill="#B40404"/>
</g>
</g>
<g id="Group_5">
<g id="Group_6">
<path id="Vector_3" d="M39.9488 27.2166L37.2023 19.6653L30.6109 26.2567L33.8774 25.0533C34.3057 24.89 34.789 25.1133 34.9474 25.5467C35.1074 25.9783 34.8857 26.4583 34.454 26.6166L30.3042 28.1466C30.2092 28.1816 30.1125 28.1982 30.0158 28.1982C29.6775 28.1982 29.3575 27.9899 29.2342 27.6533C29.2326 27.6483 29.2342 27.6433 29.2326 27.6383L22.2478 34.623L39.4538 28.2832C39.8855 28.125 40.1071 27.6483 39.9488 27.2166Z" fill="#B40404"/>
</g>
</g>
<g id="Group_7">
<g id="Group_8">
<path id="Vector_4" d="M39.756 13.5771L26.4231 0.24423C26.0981 -0.0807589 25.5698 -0.0807589 25.2448 0.24423L0.245695 25.2433C-0.079294 25.5683 -0.079294 26.0967 0.245695 26.4217L13.5786 39.7546C13.7402 39.9179 13.9536 39.9996 14.1669 39.9996C14.3803 39.9996 14.5935 39.9179 14.7569 39.7562L39.756 14.7571C40.081 14.4304 40.081 13.9037 39.756 13.5771ZM9.75708 23.0901L6.42384 26.4233C6.26048 26.5849 6.04721 26.6667 5.83386 26.6667C5.62051 26.6667 5.40723 26.585 5.24388 26.4233C4.91889 26.0983 4.91889 25.57 5.24388 25.245L8.57712 21.9117C8.90211 21.5868 9.43045 21.5868 9.75544 21.9117C10.0804 22.2368 10.0821 22.7634 9.75708 23.0901ZM24.1482 24.1484C23.5582 24.7384 22.7566 25.0217 21.8649 25.0217C20.3916 25.0217 18.67 24.2501 17.2301 22.8084C16.1768 21.7551 15.4368 20.4952 15.1485 19.2619C14.8285 17.887 15.0919 16.6904 15.8901 15.8904C16.6885 15.0904 17.8851 14.8271 19.2617 15.1488C20.495 15.4371 21.7549 16.1754 22.8082 17.2304C25.1232 19.5436 25.7132 22.5834 24.1482 24.1484ZM34.7562 14.7571L31.423 18.0903C31.2596 18.252 31.0463 18.3337 30.833 18.3337C30.6196 18.3337 30.4064 18.252 30.243 18.0903C29.918 17.7653 29.918 17.237 30.243 16.912L33.5762 13.5788C33.9012 13.2538 34.4296 13.2538 34.7546 13.5788C35.0795 13.9037 35.0812 14.4304 34.7562 14.7571Z" fill="#B40404"/>
</g>
</g>
</g>
<defs>
<clipPath id="clip0_181_1035">
<rect width="40" height="40" fill="white"/>
</clipPath>
</defs>
</svg>
