<svg width="40" height="40" viewBox="0 0 40 40" fill="none" xmlns="http://www.w3.org/2000/svg">
<g id="diploma 1">
<g id="Diploma">
<path id="Vector" d="M35.4545 3H4.54545C3.34037 3.00144 2.18505 3.4808 1.33293 4.33293C0.480802 5.18505 0.00144351 6.34037 0 7.54545V27.5455C0.00144351 28.7505 0.480802 29.9059 1.33293 30.758C2.18505 31.6101 3.34037 32.0895 4.54545 32.0909H25.4545V30.4909C24.2783 29.5492 23.4236 28.2653 23.0086 26.8169C22.5936 25.3684 22.6387 23.8267 23.1377 22.405C23.6368 20.9832 24.5651 19.7516 25.7943 18.8803C27.0236 18.0089 28.4932 17.5409 30 17.5409C31.5068 17.5409 32.9764 18.0089 34.2057 18.8803C35.4349 19.7516 36.3632 20.9832 36.8623 22.405C37.3613 23.8267 37.4064 25.3684 36.9914 26.8169C36.5764 28.2653 35.7217 29.5492 34.5455 30.4909V32.0909H35.4545C36.6596 32.0895 37.8149 31.6101 38.6671 30.758C39.5192 29.9059 39.9986 28.7505 40 27.5455V7.54545C39.9986 6.34037 39.5192 5.18505 38.6671 4.33293C37.8149 3.4808 36.6596 3.00144 35.4545 3ZM6.36364 8.45455H16.3636C16.6047 8.45455 16.836 8.55032 17.0065 8.72081C17.177 8.8913 17.2727 9.12253 17.2727 9.36364C17.2727 9.60474 17.177 9.83597 17.0065 10.0065C16.836 10.1769 16.6047 10.2727 16.3636 10.2727H6.36364C6.12253 10.2727 5.8913 10.1769 5.72081 10.0065C5.55032 9.83597 5.45455 9.60474 5.45455 9.36364C5.45455 9.12253 5.55032 8.8913 5.72081 8.72081C5.8913 8.55032 6.12253 8.45455 6.36364 8.45455ZM19.0909 24.8182H6.36364C6.12253 24.8182 5.8913 24.7224 5.72081 24.5519C5.55032 24.3814 5.45455 24.1502 5.45455 23.9091C5.45455 23.668 5.55032 23.4368 5.72081 23.2663C5.8913 23.0958 6.12253 23 6.36364 23H19.0909C19.332 23 19.5632 23.0958 19.7337 23.2663C19.9042 23.4368 20 23.668 20 23.9091C20 24.1502 19.9042 24.3814 19.7337 24.5519C19.5632 24.7224 19.332 24.8182 19.0909 24.8182ZM20.9091 20.2727H6.36364C6.12253 20.2727 5.8913 20.177 5.72081 20.0065C5.55032 19.836 5.45455 19.6047 5.45455 19.3636C5.45455 19.1225 5.55032 18.8913 5.72081 18.7208C5.8913 18.5503 6.12253 18.4545 6.36364 18.4545H20.9091C21.1502 18.4545 21.3814 18.5503 21.5519 18.7208C21.7224 18.8913 21.8182 19.1225 21.8182 19.3636C21.8182 19.6047 21.7224 19.836 21.5519 20.0065C21.3814 20.177 21.1502 20.2727 20.9091 20.2727ZM31.8182 15.7273H6.36364C6.12253 15.7273 5.8913 15.6315 5.72081 15.461C5.55032 15.2905 5.45455 15.0593 5.45455 14.8182C5.45455 14.5771 5.55032 14.3458 5.72081 14.1754C5.8913 14.0049 6.12253 13.9091 6.36364 13.9091H31.8182C32.0593 13.9091 32.2905 14.0049 32.461 14.1754C32.6315 14.3458 32.7273 14.5771 32.7273 14.8182C32.7273 15.0593 32.6315 15.2905 32.461 15.461C32.2905 15.6315 32.0593 15.7273 31.8182 15.7273Z" fill="#B40404"/>
<path id="Vector_2" d="M29.9997 32.0903C29.0647 32.0903 28.1385 31.909 27.2725 31.5566V36.1812C27.2725 36.2634 27.2948 36.3441 27.3371 36.4146C27.3794 36.4851 27.44 36.5429 27.5125 36.5817C27.5849 36.6205 27.6666 36.6389 27.7487 36.635C27.8309 36.6311 27.9104 36.6049 27.9788 36.5594L29.7479 35.3776C29.8225 35.3279 29.9101 35.3014 29.9997 35.3014C30.0893 35.3014 30.177 35.3279 30.2516 35.3776L32.0206 36.5594C32.0891 36.6049 32.1686 36.6311 32.2507 36.635C32.3329 36.6389 32.4145 36.6205 32.487 36.5817C32.5595 36.5429 32.6201 36.4851 32.6624 36.4146C32.7046 36.3441 32.727 36.2634 32.727 36.1812V31.5566C31.8609 31.909 30.9348 32.0903 29.9997 32.0903Z" fill="#B40404"/>
<path id="Vector_3" d="M30.0004 30.2724C33.0129 30.2724 35.455 27.8303 35.455 24.8178C35.455 21.8054 33.0129 19.3633 30.0004 19.3633C26.988 19.3633 24.5459 21.8054 24.5459 24.8178C24.5459 27.8303 26.988 30.2724 30.0004 30.2724Z" fill="#B40404"/>
</g>
</g>
</svg>
