<svg width="40" height="40" viewBox="0 0 40 40" fill="none" xmlns="http://www.w3.org/2000/svg">
<g id="danger">
<path id="Vector" fill-rule="evenodd" clip-rule="evenodd" d="M35.6746 26.675C35.6746 21.6083 32.7412 15.3833 30.7662 11.7667L29.0079 8.79167C29.1726 9.93471 29.1074 11.0991 28.8162 12.2167C28.434 13.1972 27.849 14.0861 27.0996 14.825C27.0142 12.2457 26.2527 9.73407 24.8912 7.54167C24.6329 7.15833 23.9746 6.11417 23.2412 5.18333C21.7946 3.33986 20.0065 1.79223 17.9746 0.625C18.6858 2.09568 19.1127 3.68748 19.2329 5.31667C19.1746 7.23333 18.5662 8.38333 15.6912 12.1333C12.8162 15.8833 13.5246 21.475 13.5246 21.475C13.2949 20.6937 12.982 19.9394 12.5912 19.225C11.8412 17.7667 8.7829 16.05 8.59123 15.95C8.67457 16.1583 10.0496 19.5833 8.17457 21.9083C5.79123 24.8833 3.8829 27.1 4.4079 31.55C5.07457 37.2083 11.5162 38.7917 14.4746 39.2167H14.4829C15.3746 39.35 15.9412 39.375 15.9412 39.375C13.9937 38.7083 12.8837 36.2583 12.7304 34.9108C12.6113 34.1432 12.6598 33.3589 12.8727 32.6119C13.0856 31.8649 13.4578 31.1728 13.9637 30.5833C14.3604 30.04 15.8262 28.5833 16.3196 28.0833C17.6131 26.9789 18.5142 25.4852 18.8879 23.8258C19.0892 22.6656 19.1254 21.4828 18.9954 20.3125C20.3669 21.1826 21.5288 22.3454 22.3979 23.7175C23.0756 24.7927 23.4518 26.0303 23.4871 27.3008C23.8561 26.9353 24.1442 26.4964 24.3329 26.0125C24.4763 25.4584 24.5072 24.8812 24.4237 24.315C24.4237 24.315 27.8037 28.9817 27.7087 33.1283C27.5896 38.325 24.3754 39.3725 24.3704 39.3783C24.4046 39.37 35.6746 37.965 35.6746 26.675Z" fill="#B40404"/>
</g>
</svg>
