<svg width="40" height="40" viewBox="0 0 40 40" fill="none" xmlns="http://www.w3.org/2000/svg">
<g id="easy-installation (2)" clip-path="url(#clip0_181_1079)">
<g id="Group">
<path id="Vector" d="M17.6562 40C16.9553 40 16.4062 39.4509 16.4062 38.75V35.7031C16.4062 35.2174 16.0964 34.805 15.617 34.6525C14.6764 34.3838 13.7013 33.9795 12.7207 33.4515C12.5645 33.3693 12.3874 33.3257 12.2094 33.3257C11.9154 33.3257 11.6388 33.4405 11.4302 33.649L9.27406 35.8052C9.04391 36.0354 8.73297 36.1621 8.39844 36.1621C8.06398 36.1621 7.75297 36.0354 7.52289 35.8052L4.19477 32.4771C3.96461 32.247 3.83789 31.936 3.83789 31.6016C3.83789 31.267 3.96461 30.9561 4.19477 30.7259L6.35102 28.5698C6.69453 28.2261 6.77367 27.7072 6.54797 27.2785C6.02047 26.2987 5.61617 25.3237 5.3468 24.3809C5.19031 23.9113 4.76789 23.5938 4.29688 23.5938H1.25C0.549062 23.5938 0 23.0447 0 22.3438V17.6562C0 16.9553 0.549062 16.4062 1.25 16.4062H4.29688C4.78258 16.4062 5.195 16.0964 5.3475 15.617C5.61609 14.6766 6.02039 13.7014 6.54836 12.7207C6.77375 12.2927 6.69461 11.7738 6.35109 11.4302L4.19484 9.27391C3.96469 9.04375 3.83797 8.73281 3.83797 8.39836C3.83797 8.06391 3.96469 7.75297 4.19484 7.52289L7.52297 4.19461C7.75305 3.96445 8.06406 3.83773 8.39852 3.83773C8.73305 3.83773 9.04398 3.96445 9.27414 4.19461L11.4303 6.35102C11.6388 6.55945 11.9154 6.67422 12.2093 6.67422C12.3874 6.67422 12.5645 6.63055 12.7215 6.54797C13.7013 6.02031 14.6765 5.61594 15.6193 5.34664C16.0887 5.19008 16.4062 4.76773 16.4062 4.29688V1.25C16.4062 0.549062 16.9553 0 17.6562 0H22.3438C23.0447 0 23.5938 0.549062 23.5938 1.25V4.29688C23.5938 4.78242 23.9036 5.19484 24.383 5.34734C25.3236 5.61602 26.2987 6.02031 27.2793 6.54836C27.4355 6.63063 27.6127 6.6743 27.7908 6.6743C28.0847 6.6743 28.3613 6.55945 28.5698 6.35109L30.7259 4.19469C30.9561 3.96453 31.267 3.83781 31.6016 3.83781C31.936 3.83781 32.247 3.96453 32.4771 4.19469L35.8052 7.52297C36.0354 7.75305 36.1621 8.06398 36.1621 8.39844C36.1621 8.73289 36.0354 9.04383 35.8052 9.27398L33.649 11.4303C33.3055 11.7738 33.2263 12.2927 33.452 12.7214C33.9797 13.7015 34.3839 14.6766 34.6532 15.6192C34.8098 16.0887 35.2322 16.4062 35.7031 16.4062H38.75C39.4509 16.4062 40 16.9553 40 17.6562V22.3438C40 23.0447 39.4509 23.5938 38.75 23.5938H35.7031C35.2174 23.5938 34.805 23.9036 34.6525 24.383C34.3838 25.3236 33.9795 26.2987 33.4516 27.2791C33.2262 27.7072 33.3054 28.2261 33.6489 28.5698L35.8052 30.7259C36.0353 30.9561 36.162 31.267 36.162 31.6016C36.162 31.936 36.0353 32.247 35.8052 32.4771L32.477 35.8052C32.247 36.0354 31.9359 36.1621 31.6015 36.1621C31.267 36.1621 30.956 36.0354 30.7259 35.8052L28.5697 33.649C28.3612 33.4405 28.0845 33.3257 27.7905 33.3257C27.6125 33.3257 27.4354 33.3694 27.2785 33.4519C26.2987 33.9795 25.3235 34.3838 24.3807 34.6532C23.9113 34.8098 23.5938 35.2322 23.5938 35.7031V38.75C23.5938 39.4509 23.0447 40 22.3438 40H17.6562ZM20 9.53125C14.2275 9.53125 9.53125 14.2275 9.53125 20C9.53125 25.7725 14.2275 30.4688 20 30.4688C25.7725 30.4688 30.4688 25.7725 30.4688 20C30.4688 14.2275 25.7725 9.53125 20 9.53125Z" fill="#B40404"/>
<path id="Vector_2" d="M22.6871 16.8277L18.8281 20.6867L17.3129 19.1714C16.8552 18.7137 16.1135 18.7137 15.6558 19.1714C15.1981 19.6292 15.1981 20.3708 15.6558 20.8285L17.9996 23.1723C18.4573 23.63 19.1988 23.6301 19.6567 23.1723L24.3442 18.4848C24.8019 18.027 24.8019 17.2854 24.3442 16.8277C23.8864 16.3699 23.1449 16.3699 22.6871 16.8277Z" fill="#B40404"/>
</g>
</g>
<defs>
<clipPath id="clip0_181_1079">
<rect width="40" height="40" fill="white"/>
</clipPath>
</defs>
</svg>
