<svg width="40" height="40" viewBox="0 0 40 40" fill="none" xmlns="http://www.w3.org/2000/svg">
<g id="eco-friendly-fabric 1">
<g id="Page-1">
<g id="029---Eco-Friendly-Fabric">
<path id="Shape" d="M14.7314 8.16872L15.0678 7.75015C16.9899 5.34729 18.6035 3.25015 19.4478 2.14015C19.5675 1.98375 19.7911 1.95372 19.9478 2.07301C23.4335 4.78729 26.6078 9.75587 25.9428 15.073C25.7484 16.6674 25.3343 18.2272 24.7121 19.708C23.4619 20.206 22.2847 20.8703 21.2121 21.683C19.615 22.867 18.293 24.3827 17.3371 26.1259C17.3267 26.1456 17.3174 26.1658 17.3092 26.1866C17.0982 26.6054 16.9182 27.0392 16.7707 27.4844C16.6278 27.2701 16.4778 27.063 16.3207 26.8602C15.8357 23.503 15.3114 15.3316 20.0942 8.42515C20.3074 8.10107 20.223 7.66605 19.9041 7.44525C19.5851 7.22446 19.1482 7.29861 18.9199 7.61229C14.5949 13.8566 14.3599 21.0309 14.6992 25.198C13.7505 24.4333 12.7014 23.8022 11.5814 23.3223C7.95066 16.5852 12.0228 11.5273 14.7314 8.16872ZM3.04423 31.3087C2.17512 28.7837 1.1696 26.3076 0.0320833 23.8916C-0.0138156 23.7907 -0.0103068 23.6743 0.0415812 23.5764C0.0934693 23.4785 0.187859 23.4102 0.297083 23.3916C5.60566 22.5652 13.4864 23.9437 16.0114 28.9987C16.5857 30.2269 17.0127 31.5188 17.2835 32.8473C15.1528 29.858 11.4764 26.7901 3.94566 25.1766C3.55984 25.0937 3.17993 25.3393 3.09708 25.7252C3.01424 26.111 3.25984 26.4909 3.64566 26.5737C13.6821 28.7244 16.3064 33.6494 17.4249 35.8116L17.4299 35.8216V35.8266C17.4367 35.8434 17.4443 35.8598 17.4528 35.8759C17.6334 36.2198 17.7943 36.5737 17.9349 36.9359C17.9857 37.4194 18.0199 37.8287 18.0428 38.1316C7.43137 40.708 4.02351 34.2473 3.04423 31.3087ZM35.9835 29.1387C34.1092 34.1387 26.9835 39.8266 19.4764 38.1044C19.4257 37.3744 19.3021 35.9823 19.0357 34.3673C19.6185 32.1473 21.4999 25.9387 36.1114 22.2823C36.3642 22.2254 36.5664 22.0361 36.6397 21.7875C36.713 21.539 36.6459 21.2702 36.4645 21.0852C36.283 20.9002 36.0156 20.828 35.7657 20.8966C26.5814 23.1923 20.9028 26.7609 18.4957 31.7587C18.3032 30.9859 18.0647 30.2252 17.7814 29.4809C17.8897 28.5402 18.1711 27.6277 18.6114 26.7894C18.6213 26.7709 18.6302 26.7519 18.6378 26.7323C19.4996 25.1946 20.6783 23.8575 22.0957 22.8094C23.1425 22.0177 24.297 21.3793 25.5242 20.9137H25.5299C30.3264 19.0309 36.2692 19.128 38.8485 19.2823C38.957 19.2882 39.0567 19.3438 39.1187 19.433C39.1806 19.5222 39.198 19.635 39.1657 19.7387C38.6049 21.573 37.4607 25.2016 35.9835 29.1387Z" fill="#B40404"/>
</g>
</g>
</g>
</svg>
