<svg width="40" height="40" viewBox="0 0 40 40" fill="none" xmlns="http://www.w3.org/2000/svg">
<g id="spray-paint-gun">
<g id="Layer_x0020_1">
<path id="Vector" fill-rule="evenodd" clip-rule="evenodd" d="M10.6618 36.2508H7.11646C6.85786 36.2508 6.64771 36.0406 6.64771 35.782V34.8555H11.1305V35.782C11.1305 36.0406 10.9204 36.2508 10.6618 36.2508Z" fill="#B40404"/>
<path id="Vector_2" fill-rule="evenodd" clip-rule="evenodd" d="M26.5911 20.5531H5.75122C5.49263 20.5531 5.28247 20.343 5.28247 20.0844V13.2609C5.28247 13.0016 5.49263 12.7922 5.75122 12.7922H13.409V15.1437C13.409 15.9508 14.0661 16.6078 14.8739 16.6078H20.3965C21.2043 16.6078 21.8614 15.9508 21.8614 15.1437V12.7922H26.5911C26.8497 12.7922 27.0598 13.0016 27.0598 13.2609V20.0844C27.0598 20.343 26.8497 20.5531 26.5911 20.5531ZM14.3465 12.7922H20.9239V15.1437C20.9239 15.4344 20.6872 15.6703 20.3965 15.6703H14.8739C14.5833 15.6703 14.3465 15.4344 14.3465 15.1437V12.7922Z" fill="#B40404"/>
<path id="Vector_3" fill-rule="evenodd" clip-rule="evenodd" d="M4.34458 18.7859H2.11646C0.95083 18.7859 0.00317383 17.8383 0.00317383 16.6727C0.00317383 15.507 0.95083 14.5586 2.11646 14.5586H4.34458V18.7859Z" fill="#B40404"/>
<path id="Vector_4" fill-rule="evenodd" clip-rule="evenodd" d="M20.32 30.311C20.1958 30.311 20.0762 30.261 19.9887 30.1735L15.9473 26.1321C15.859 26.0446 15.8098 25.925 15.8098 25.8008V21.4907H18.3504V24.9422L21.7856 28.3766C21.9684 28.5594 21.9684 28.8563 21.7848 29.0391L20.6512 30.1735C20.5637 30.261 20.4442 30.311 20.32 30.311Z" fill="#B40404"/>
<path id="Vector_5" fill-rule="evenodd" clip-rule="evenodd" d="M11.5359 33.9179H6.24212C6.09759 33.9179 5.96166 33.8515 5.87259 33.7383C5.78431 33.6242 5.75228 33.4765 5.78744 33.3367L8.71947 21.4906H12.8804L11.1538 27.9336H12.8882C13.0335 27.9336 13.171 28.0015 13.2601 28.1172C13.3484 28.2328 13.3781 28.3828 13.3406 28.5242L11.9882 33.5703C11.9335 33.775 11.7476 33.9179 11.5359 33.9179Z" fill="#B40404"/>
<path id="Vector_6" fill-rule="evenodd" clip-rule="evenodd" d="M30.095 19.0311H27.9973V14.3132H30.095C30.3536 14.3132 30.5637 14.5233 30.5637 14.7819V18.5624C30.5637 18.8218 30.3536 19.0311 30.095 19.0311Z" fill="#B40404"/>
<path id="Vector_7" fill-rule="evenodd" clip-rule="evenodd" d="M18.7762 13.7296H16.4934C16.2348 13.7296 16.0247 13.5195 16.0247 13.2609V11.5062C16.0247 11.3492 16.1028 11.2031 16.2333 11.1163C16.3637 11.0296 16.5286 11.0132 16.6739 11.0734C16.9786 11.2007 17.302 11.2648 17.6348 11.2648C17.9676 11.2648 18.2911 11.2007 18.5965 11.0734C18.7411 11.0132 18.9059 11.0296 19.0364 11.1163C19.1668 11.2031 19.245 11.3492 19.245 11.5062V13.2609C19.245 13.5195 19.0348 13.7296 18.7762 13.7296Z" fill="#B40404"/>
<path id="Vector_8" fill-rule="evenodd" clip-rule="evenodd" d="M17.6356 12.2023H17.6348C15.7239 12.2023 14.1692 10.6476 14.1692 8.73593V4.21796C14.1692 3.95936 14.3793 3.74921 14.6379 3.74921H20.6317C20.8903 3.74921 21.1004 3.95936 21.1004 4.21796V8.73593C21.1004 10.6476 19.5458 12.2023 17.6356 12.2023Z" fill="#B40404"/>
<path id="Vector_9" fill-rule="evenodd" clip-rule="evenodd" d="M39.529 17.1414H33.0735C32.8149 17.1414 32.6047 16.9312 32.6047 16.6726C32.6047 16.4133 32.8149 16.2039 33.0735 16.2039H39.529C39.7875 16.2039 39.9977 16.4133 39.9977 16.6726C39.9977 16.9312 39.7875 17.1414 39.529 17.1414Z" fill="#B40404"/>
<path id="Vector_10" fill-rule="evenodd" clip-rule="evenodd" d="M33.1836 14.5343C32.9766 14.5343 32.7875 14.3961 32.7312 14.1867C32.6641 13.9367 32.8125 13.6797 33.0625 13.6125L39.2977 11.9421C39.5477 11.8742 39.8039 12.0234 39.8711 12.2734C39.9383 12.5234 39.7898 12.7804 39.5398 12.8476L33.3047 14.5179C33.2641 14.5289 33.2234 14.5343 33.1836 14.5343Z" fill="#B40404"/>
<path id="Vector_11" fill-rule="evenodd" clip-rule="evenodd" d="M39.4188 21.4195C39.3789 21.4195 39.3383 21.4148 39.2977 21.4039L33.0625 19.7328C32.8125 19.6664 32.6641 19.4093 32.7312 19.1593C32.7977 18.9086 33.0547 18.7601 33.3047 18.8273L39.5398 20.4984C39.7898 20.5648 39.9383 20.8218 39.8711 21.0718C39.8156 21.2812 39.6258 21.4195 39.4188 21.4195Z" fill="#B40404"/>
</g>
</g>
</svg>
