<svg width="40" height="40" viewBox="0 0 40 40" fill="none" xmlns="http://www.w3.org/2000/svg">
<g id="settings 1" clip-path="url(#clip0_295_439)">
<g id="Group">
<g id="Group_2">
<path id="Vector" d="M25.8186 21.1719C25.2742 23.843 22.8291 25.8594 19.9997 25.8594C17.1704 25.8594 14.8034 23.843 14.2589 21.1719H11.915C12.4898 25.1367 15.8782 28.2031 19.9997 28.2031C24.1212 28.2031 27.5878 25.1367 28.1625 21.1719H25.8186Z" fill="#B40404"/>
</g>
</g>
<g id="Group_3">
<g id="Group_4">
<path id="Vector_2" d="M30.5066 21.1719C29.9149 26.4309 25.4146 30.5469 20 30.5469C14.5854 30.5469 10.1632 26.4309 9.57156 21.1719H0V22.3438C0 22.8484 0.323906 23.297 0.802266 23.4561L5.62398 25.0297C5.82656 25.6042 6.04055 26.1272 6.26945 26.6101L4.04469 31.0802C3.82039 31.531 3.90961 32.0746 4.26555 32.4305L7.56945 35.7345C7.92766 36.0927 8.47008 36.1773 8.91984 35.9553L13.3899 33.7305C13.8729 33.9595 14.3959 34.1734 14.9703 34.376L16.5439 39.1977C16.703 39.6761 17.1516 40 17.6562 40H22.4219C22.9266 40 23.3752 39.6761 23.5342 39.1977L25.1078 34.376C25.6823 34.1734 26.2053 33.9595 26.6882 33.7305L31.1583 35.9553C31.608 36.1784 32.1516 36.0927 32.5087 35.7345L35.8126 32.4305C36.1685 32.0746 36.2577 31.531 36.0334 31.0802L33.8087 26.6101C34.0376 26.1271 34.2516 25.6041 34.4541 25.0297L39.1977 23.4561C39.6761 23.297 40 22.8484 40 22.3438V21.1719H30.5066Z" fill="#B40404"/>
</g>
</g>
<g id="Group_5">
<g id="Group_6">
<path id="Vector_3" d="M16.7002 21.1719C17.1856 22.533 18.4742 23.5156 20 23.5156C21.5257 23.5156 22.8925 22.533 23.3779 21.1719H16.7002Z" fill="#B40404"/>
</g>
</g>
<g id="Group_7">
<g id="Group_8">
<path id="Vector_4" d="M20 0C17.4148 0 15.3125 2.10227 15.3125 4.6875C15.3125 7.27273 17.4148 9.375 20 9.375C22.5852 9.375 24.7656 7.27273 24.7656 4.6875C24.7656 2.10227 22.5852 0 20 0Z" fill="#B40404"/>
</g>
</g>
<g id="Group_9">
<g id="Group_10">
<path id="Vector_5" d="M31.7969 0C29.2116 0 27.1094 2.10227 27.1094 4.6875C27.1094 7.27273 29.2116 9.375 31.7969 9.375C34.3821 9.375 36.4844 7.27273 36.4844 4.6875C36.4844 2.10227 34.3821 0 31.7969 0Z" fill="#B40404"/>
</g>
</g>
<g id="Group_11">
<g id="Group_12">
<path id="Vector_6" d="M8.28125 0C5.69602 0 3.59375 2.10227 3.59375 4.6875C3.59375 7.27273 5.69602 9.375 8.28125 9.375C10.8665 9.375 12.9688 7.27273 12.9688 4.6875C12.9688 2.10227 10.8665 0 8.28125 0Z" fill="#B40404"/>
</g>
</g>
<g id="Group_13">
<g id="Group_14">
<path id="Vector_7" d="M35.7941 10.459C34.6574 11.2488 33.2828 11.7181 31.7968 11.7181C30.317 11.7181 28.9466 11.2538 27.8127 10.47C27.2987 10.7651 26.8047 11.0969 26.3574 11.497C28.6364 13.2005 30.2187 15.8612 30.5534 18.8275H39.9999V17.6556C39.9999 14.5913 38.2905 11.8672 35.7941 10.459Z" fill="#B40404"/>
</g>
</g>
<g id="Group_15">
<g id="Group_16">
<path id="Vector_8" d="M20.0005 11.7188C15.8748 11.7188 12.4508 14.8582 11.8809 18.8281H28.1981C27.6283 14.8582 24.1261 11.7188 20.0005 11.7188Z" fill="#B40404"/>
</g>
</g>
<g id="Group_17">
<g id="Group_18">
<path id="Vector_9" d="M12.2654 10.47C11.1314 11.2538 9.76109 11.7181 8.28125 11.7181C6.79523 11.7181 5.42062 11.2488 4.28398 10.459C1.78758 11.8672 0 14.5913 0 17.6556V18.8275H9.52469C9.85938 15.8612 11.4416 13.2005 13.7206 11.497C13.2733 11.0969 12.7794 10.7651 12.2654 10.47Z" fill="#B40404"/>
</g>
</g>
</g>
<defs>
<clipPath id="clip0_295_439">
<rect width="40" height="40" fill="white"/>
</clipPath>
</defs>
</svg>
