<svg width="40" height="40" viewBox="0 0 40 40" fill="none" xmlns="http://www.w3.org/2000/svg">
<g id="easy-installation (1)" clip-path="url(#clip0_181_1052)">
<g id="Group">
<path id="Vector" d="M37.1646 16.9225C39.3916 14.6955 40.34 11.3862 39.8919 8.26871C39.7554 7.31911 38.5835 6.94106 37.9051 7.61942L33.9882 11.5363L29.5689 10.4314L28.464 6.01208L32.3809 2.0952C33.0593 1.41684 32.6812 0.244888 31.7316 0.108403C28.6141 -0.339721 25.3048 0.608638 23.0779 2.83567C19.1941 6.71942 19.1941 13.0388 23.0779 16.9225C26.9615 20.8063 33.2808 20.8063 37.1646 16.9225Z" fill="#B40404"/>
<path id="Vector_2" d="M29.398 25.9882L29.6742 25.712C30.1319 25.2543 30.1319 24.5124 29.6742 24.0547C29.2166 23.5971 28.4746 23.5971 28.017 24.0547L26.0834 25.9882L24.3291 24.2339L22.6718 25.8911L24.4262 27.6455L22.4927 29.579C22.035 30.0367 22.035 30.7786 22.4927 31.2363C22.9503 31.6939 23.6923 31.6939 24.1499 31.2363L24.4262 30.96L32.4364 38.9703C33.8094 40.3432 36.0353 40.3432 37.4083 38.9703C38.7812 37.5973 38.7812 35.3714 37.4083 33.9984L29.398 25.9882Z" fill="#B40404"/>
<path id="Vector_3" d="M3.10543 8.53487C3.21082 8.64034 3.33543 8.72463 3.47238 8.7833L7.13191 10.3517L14.1088 17.3286L15.7661 15.6714L8.78918 8.69432L7.22082 5.03487C7.16215 4.89783 7.07777 4.7733 6.97238 4.66783L4.21027 1.9058C3.75262 1.44815 3.01066 1.44815 2.55301 1.9058L0.343242 4.11549C-0.114414 4.57307 -0.114414 5.3151 0.343242 5.77276L3.10543 8.53487Z" fill="#B40404"/>
<path id="Vector_4" d="M21.4203 18.5798C20.5169 17.6764 19.7723 16.6561 19.1988 15.5533L1.08691 33.665C-0.362305 35.1142 -0.362305 37.4638 1.08691 38.913C2.53613 40.3623 4.88574 40.3623 6.33496 38.913L24.4468 20.8013C23.344 20.2277 22.3237 19.4831 21.4203 18.5798Z" fill="#B40404"/>
</g>
</g>
<defs>
<clipPath id="clip0_181_1052">
<rect width="40" height="40" fill="white"/>
</clipPath>
</defs>
</svg>
