<svg width="35" height="32" viewBox="0 0 35 32" fill="none" xmlns="http://www.w3.org/2000/svg">
<g clip-path="url(#clip0_1123_393)">
<path d="M8.13336 0.995851C8.13336 0.722806 8.35532 0.5 8.63092 0.5H28.7596L34.3334 6.07377V31.0042C34.3334 31.2772 34.1114 31.5 33.8358 31.5H8.63092C8.35532 31.5 8.13336 31.2772 8.13336 31.0042V0.995851Z" fill="#F6FBFF" stroke="#C5CED7"/>
<path d="M29.4667 1.2104V1.20711L33.6262 5.36667H33.6249H33.6162H33.6076H33.599H33.5904H33.5817H33.5731H33.5644H33.5557H33.547H33.5383H33.5296H33.5209H33.5122H33.5034H33.4947H33.4859H33.4772H33.4684H33.4596H33.4508H33.442H33.4332H33.4243H33.4155H33.4067H33.3978H33.3889H33.3801H33.3712H33.3623H33.3534H33.3445H33.3356H33.3266H33.3177H33.3088H33.2998H33.2908H33.2819H33.2729H33.2639H33.2549H33.2459H33.2369H33.2279H33.2189H33.2098H33.2008H33.1917H33.1827H33.1736H33.1645H33.1555H33.1464H33.1373H33.1282H33.1191H33.11H33.1008H33.0917H33.0826H33.0734H33.0643H33.0551H33.046H33.0368H33.0276H33.0185H33.0093H33.0001H32.9909H32.9817H32.9725H32.9632H32.954H32.9448H32.9356H32.9263H32.9171H32.9078H32.8986H32.8893H32.88H32.8708H32.8615H32.8522H32.8429H32.8336H32.8243H32.815H32.8057H32.7964H32.7871H32.7778H32.7685H32.7591H32.7498H32.7405H32.7311H32.7218H32.7125H32.7031H32.6937H32.6844H32.675H32.6657H32.6563H32.6469H32.6375H32.6282H32.6188H32.6094H32.6H32.5906H32.5812H32.5718H32.5624H32.553H32.5436H32.5342H32.5248H32.5154H32.506H32.4966H32.4871H32.4777H32.4683H32.4589H32.4494H32.44H32.4306H32.4211H32.4117H32.4023H32.3928H32.3834H32.3739H32.3645H32.3551H32.3456H32.3362H32.3267H32.3173H32.3078H32.2984H32.2889H32.2795H32.27H32.2606H32.2511H32.2417H32.2322H32.2228H32.2133H32.2039H32.1944H32.185H32.1755H32.1661H32.1566H32.1472H32.1377H32.1283H32.1188H32.1094H32.0999H32.0905H32.081H32.0716H32.0621H32.0527H32.0432H32.0338H32.0244H32.0149H32.0055H31.9961H31.9866H31.9772H31.9678H31.9583H31.9489H31.9395H31.9301H31.9206H31.9112H31.9018H31.8924H31.883H31.8736H31.8642H31.8548H31.8454H31.836H31.8266H31.8172H31.8078H31.7984H31.789H31.7796H31.7703H31.7609H31.7515H31.7421H31.7328H31.7234H31.7141H31.7047H31.6954H31.686H31.6767H31.6673H31.658H31.6487H31.6393H31.63H31.6207H31.6114H31.6021H31.5928H31.5835H31.5742H31.5649H31.5556H31.5464H31.5371H31.5278H31.5185H31.5093H31.5H31.4908H31.4816H31.4723H31.4631H31.4539H31.4446H31.4354H31.4262H31.417H31.4078H31.3986H31.3895H31.3803H31.3711H31.3619H31.3528H31.3436H31.3345H31.3254H31.3162H31.3071H31.298H31.2889H31.2798H31.2707H31.2616H31.2525H31.2434H31.2344H31.2253H31.2162H31.2072H31.1982H31.1891H31.1801H31.1711H31.1621H31.1531H31.1441H31.1351H31.1262H31.1172H31.1082H31.0993H31.0903H31.0814H31.0725H31.0636H31.0547H31.0458H31.0369H31.028H31.0191H31.0103H31.0014H30.9926H30.9838H30.9749H30.9661H30.9573H30.9485H30.9398H30.931H30.9222H30.9135H30.9047H30.896H30.8873H30.8786H30.8698H30.8612H30.8525H30.8438H30.8351H30.8265H30.8179H30.8092H30.8006H30.792H30.7834H30.7748H30.7662H30.7577H30.7491H30.7406H30.7321H30.7236H30.715H30.7066H30.6981H30.6896H30.6811H30.6727H30.6643H30.6558H30.6474H30.639H30.6307H30.6223H30.6139H30.6056H30.5972H30.5889H30.5806H30.5723H30.564H30.5558H30.5475H30.5393H30.531H30.5228H30.5146H30.5064H30.4982H30.4901H30.4819H30.4738H30.4657C29.9134 5.36667 29.4667 4.91998 29.4667 4.3677V4.35958V4.35145V4.34331V4.33515V4.32698V4.3188V4.31061V4.3024V4.29417V4.28594V4.27769V4.26943V4.26115V4.25286V4.24456V4.23625V4.22792V4.21958V4.21123V4.20287V4.19449V4.1861V4.1777V4.16929V4.16086V4.15243V4.14398V4.13552V4.12705V4.11856V4.11007V4.10156V4.09304V4.08451V4.07597V4.06741V4.05885V4.05027V4.04169V4.03309V4.02448V4.01586V4.00723V3.99859V3.98994V3.98127V3.9726V3.96392V3.95522V3.94652V3.9378V3.92908V3.92034V3.9116V3.90285V3.89408V3.88531V3.87652V3.86773V3.85893V3.85011V3.84129V3.83246V3.82362V3.81477V3.80591V3.79704V3.78816V3.77927V3.77038V3.76147V3.75256V3.74364V3.73471V3.72577V3.71682V3.70787V3.6989V3.68993V3.68095V3.67196V3.66296V3.65396V3.64495V3.63593V3.6269V3.61786V3.60882V3.59977V3.59071V3.58165V3.57257V3.56349V3.5544V3.54531V3.53621V3.5271V3.51798V3.50886V3.49973V3.4906V3.48145V3.47231V3.46315V3.45399V3.44482V3.43565V3.42646V3.41728V3.40809V3.39889V3.38968V3.38047V3.37126V3.36203V3.35281V3.34357V3.33433V3.32509V3.31584V3.30659V3.29733V3.28806V3.27879V3.26952V3.26024V3.25095V3.24166V3.23237V3.22307V3.21377V3.20446V3.19515V3.18583V3.17651V3.16719V3.15786V3.14852V3.13919V3.12985V3.1205V3.11115V3.1018V3.09245V3.08309V3.07372V3.06436V3.05499V3.04562V3.03624V3.02686V3.01748V3.00809V2.9987V2.98931V2.97992V2.97052V2.96112V2.95172V2.94232V2.93291V2.9235V2.91409V2.90468V2.89526V2.88585V2.87643V2.86701V2.85758V2.84816V2.83873V2.8293V2.81987V2.81044V2.80101V2.79158V2.78214V2.7727V2.76327V2.75383V2.74439V2.73495V2.72551V2.71606V2.70662V2.69718V2.68773V2.67829V2.66884V2.6594V2.64995V2.64051V2.63106V2.62161V2.61217V2.60272V2.59328V2.58383V2.57439V2.56494V2.5555V2.54605V2.53661V2.52717V2.51772V2.50828V2.49884V2.4894V2.47997V2.47053V2.46109V2.45166V2.44222V2.43279V2.42336V2.41393V2.4045V2.39508V2.38565V2.37623V2.36681V2.35739V2.34797V2.33856V2.32915V2.31974V2.31033V2.30092V2.29152V2.28212V2.27272V2.26332V2.25393V2.24454V2.23515V2.22577V2.21639V2.20701V2.19764V2.18826V2.1789V2.16953V2.16017V2.15081V2.14146V2.1321V2.12276V2.11341V2.10407V2.09474V2.08541V2.07608V2.06676V2.05744V2.04812V2.03881V2.0295V2.0202V2.01091V2.00161V1.99232V1.98304V1.97376V1.96449V1.95522V1.94596V1.9367V1.92745V1.9182V1.90896V1.89972V1.89049V1.88126V1.87204V1.86283V1.85362V1.84442V1.83522V1.82603V1.81685V1.80767V1.79849V1.78933V1.78017V1.77102V1.76187V1.75273V1.74359V1.73447V1.72535V1.71623V1.70713V1.69803V1.68894V1.67985V1.67077V1.6617V1.65264V1.64358V1.63453V1.62549V1.61646V1.60743V1.59842V1.58941V1.5804V1.57141V1.56242V1.55344V1.54448V1.53551V1.52656V1.51762V1.50868V1.49975V1.49083V1.48192V1.47302V1.46413V1.45524V1.44637V1.4375V1.42865V1.4198V1.41096V1.40213V1.39331V1.3845V1.3757V1.36691V1.35813V1.34936V1.3406V1.33185V1.3231V1.31437V1.30565V1.29694V1.28824V1.27955V1.27087V1.2622V1.25354V1.24489V1.23625V1.22763V1.21901V1.2104Z" fill="#C5CED7" stroke="#C5CED7"/>
<path d="M28.9666 0.53125V1.06458H28.4333V0.53125H28.9666Z" fill="#F6FBFF"/>
<path d="M34.3001 5.86719V6.40052H33.7668V5.86719H34.3001Z" fill="#F6FBFF"/>
<path d="M18.1776 20.8557L18.0663 21.0908C17.5528 22.1756 17.0149 23.1403 16.4721 23.8789C15.9319 24.6139 15.376 25.1401 14.8217 25.3243M18.1776 20.8557L14.7902 25.2294M18.1776 20.8557L17.9375 20.9557C16.4378 21.5804 15.3117 22.2032 14.5417 22.7694C14.1567 23.0525 13.8586 23.3231 13.6471 23.5744C13.4367 23.8245 13.3065 24.0622 13.2683 24.2796M18.1776 20.8557L13.2683 24.2796M14.8217 25.3243L14.7902 25.2294M14.8217 25.3243C14.8217 25.3243 14.8217 25.3243 14.8217 25.3243L14.7902 25.2294M14.8217 25.3243C14.6189 25.3917 14.4222 25.4078 14.2271 25.3683C14.0327 25.3289 13.8457 25.2356 13.6598 25.0931M14.7902 25.2294C14.4136 25.3546 14.0747 25.2851 13.7207 25.0137M13.6598 25.0931C13.6599 25.0932 13.66 25.0932 13.6601 25.0933L13.7207 25.0137M13.6598 25.0931C13.4566 24.9384 13.3467 24.7865 13.2944 24.6426C13.2419 24.4984 13.2515 24.3728 13.2683 24.2796M13.6598 25.0931L13.7207 25.0137M13.7207 25.0137L13.2683 24.2796M17.976 21.0481L18.0144 21.1404C17.9799 21.1548 17.9455 21.1691 17.9114 21.1835C17.933 21.1386 17.9545 21.0934 17.976 21.0481ZM17.976 21.0481L17.8856 21.0053C17.8696 21.039 17.8536 21.0726 17.8376 21.1061C17.8833 21.0868 17.9295 21.0674 17.976 21.0481ZM30.2831 19.0976C30.2721 19.0306 30.2278 18.9707 30.1722 18.9209C30.1146 18.8692 30.0347 18.8191 29.9327 18.7732C29.7286 18.6812 29.4252 18.6011 29.0037 18.5621L29.0034 18.5621C28.3778 18.5057 27.6256 18.52 26.7779 18.6039L26.5786 18.6237L26.7141 18.7711C27.756 19.9047 28.9436 20.0098 29.6788 19.7149C29.8704 19.641 30.0237 19.5401 30.128 19.436C30.1801 19.384 30.2219 19.3292 30.2495 19.2743C30.2763 19.2208 30.2934 19.1591 30.2831 19.0976ZM30.2831 19.0976C30.2831 19.0977 30.2831 19.0978 30.2831 19.0979L30.1844 19.1139L30.283 19.0971C30.283 19.0972 30.2831 19.0974 30.2831 19.0976ZM18.5165 20.0143L18.5557 19.9992L18.5723 19.9607C19.7121 17.325 20.7002 14.224 21.3112 11.8967L21.3208 11.8601L21.3037 11.8262C20.6954 10.6226 20.2866 9.60028 20.0763 8.76147C19.8655 7.9203 19.8577 7.27684 20.0348 6.82193C20.2097 6.37618 20.5643 6.08446 21.0755 5.97925L21.1362 5.96804L21.1965 5.97361C21.2496 5.97993 21.7499 6.05267 22.1607 6.56276C22.697 7.2368 22.8319 8.34656 22.5173 9.89646C22.4274 10.3394 22.2773 10.9776 22.0816 11.7422L22.0721 11.7792L22.0898 11.8131C23.2075 13.962 24.7775 16.3325 26.0612 17.9788L26.0963 18.0238L26.1529 18.0164C27.2182 17.8778 28.2268 17.8299 29.0752 17.9124L29.0753 17.9125C29.866 17.9879 30.3313 18.1839 30.6041 18.3962C30.8746 18.6067 30.9629 18.8386 30.9895 19.0045L30.9895 19.0049C31.0687 19.4865 30.6855 20.0234 29.9597 20.3079C28.9671 20.6961 27.3259 20.6024 25.9833 18.9942L25.9833 18.9942L25.9822 18.9928C25.9237 18.9253 25.8649 18.8507 25.8044 18.7738L25.7683 18.7279L25.7106 18.7368C23.9415 19.0092 21.8871 19.5256 19.8036 20.2439L19.8032 20.244C19.5843 20.3207 19.373 20.3974 19.1623 20.4739L19.1619 20.474L19.1218 20.4886L19.1046 20.5276C18.4021 22.117 17.709 23.3635 17.0299 24.2657C16.3497 25.1695 15.6908 25.7178 15.0599 25.9276L15.0598 25.9276L15.0573 25.9285C14.8586 26.0007 14.6443 26.0339 14.4362 26.0339C14.0013 26.0339 13.578 25.8827 13.1867 25.5815C12.8579 25.3278 12.686 25.0651 12.6026 24.8237C12.5191 24.5818 12.5222 24.3545 12.5539 24.1686C12.6316 23.7501 12.9031 23.3303 13.313 22.9199C13.722 22.5103 14.2612 22.1178 14.8591 21.7535C16.0548 21.025 17.4718 20.417 18.5165 20.0143ZM21.9344 12.9914L21.8163 12.7803L21.7508 13.0131C21.2921 14.6457 20.668 16.6115 19.9388 18.5143C19.917 18.5699 19.8954 18.6251 19.874 18.6799C19.7695 18.9475 19.669 19.2051 19.5632 19.458L19.4775 19.6628L19.6877 19.5912C21.3181 19.036 23.2863 18.4948 25.1555 18.1688L25.3173 18.1406L25.218 18.0098C24.2113 16.6843 22.9712 14.8445 21.9344 12.9914ZM21.2039 6.65001L21.1716 6.63804L21.1387 6.6486C20.9366 6.71353 20.8005 6.83979 20.722 7.0488C20.5788 7.41234 20.6059 7.91924 20.7443 8.50777C20.8838 9.10088 21.1408 9.7944 21.4773 10.5418L21.5997 10.8137L21.6659 10.523C21.7263 10.258 21.7792 10.0137 21.8246 9.79014L21.8247 9.78985C22.174 8.04293 21.8458 7.26312 21.5859 6.94528C21.4465 6.77114 21.296 6.68402 21.2039 6.65001Z" fill="#FF1111" stroke="#F6FBFF" stroke-width="0.2"/>
<path d="M16.1667 13.2005C16.1667 13.5672 15.8667 13.8672 15.5 13.8672H0.833354C0.466687 13.8672 0.166687 13.5672 0.166687 13.2005V6.53385C0.166687 6.16719 0.466687 5.86719 0.833354 5.86719H15.5C15.8667 5.86719 16.1667 6.16719 16.1667 6.53385V13.2005Z" fill="#FF1111"/>
<path d="M3.07294 8.50081C3.07294 8.32481 3.2116 8.13281 3.43494 8.13281H4.66627C5.3596 8.13281 5.9836 8.59681 5.9836 9.48615C5.9836 10.3288 5.3596 10.7981 4.66627 10.7981H3.77627V11.5021C3.77627 11.7368 3.62694 11.8695 3.43494 11.8695C3.25894 11.8695 3.07294 11.7368 3.07294 11.5021V8.50081ZM3.77627 8.80415V10.1321H4.66627C5.0236 10.1321 5.30627 9.81681 5.30627 9.48615C5.30627 9.11348 5.0236 8.80415 4.66627 8.80415H3.77627Z" fill="white"/>
<path d="M7.02785 11.8684C6.85185 11.8684 6.65985 11.7724 6.65985 11.5384V8.51035C6.65985 8.31902 6.85185 8.17969 7.02785 8.17969H8.24852C10.6845 8.17969 10.6312 11.8684 8.29652 11.8684H7.02785ZM7.36385 8.83036V11.2184H8.24852C9.68785 11.2184 9.75185 8.83036 8.24852 8.83036H7.36385Z" fill="white"/>
<path d="M11.4949 8.87369V9.72102H12.8542C13.0462 9.72102 13.2382 9.91302 13.2382 10.099C13.2382 10.275 13.0462 10.419 12.8542 10.419H11.4949V11.5384C11.4949 11.725 11.3622 11.8684 11.1755 11.8684C10.9409 11.8684 10.7975 11.725 10.7975 11.5384V8.51035C10.7975 8.31902 10.9415 8.17969 11.1755 8.17969H13.0469C13.2815 8.17969 13.4202 8.31902 13.4202 8.51035C13.4202 8.68102 13.2815 8.87302 13.0469 8.87302H11.4949V8.87369Z" fill="white"/>
</g>
<defs>
<clipPath id="clip0_1123_393">
<rect width="34.6667" height="32" fill="white" transform="translate(0.166687)"/>
</clipPath>
</defs>
</svg>
