<svg width="157" height="20" viewBox="0 0 157 20" fill="none" xmlns="http://www.w3.org/2000/svg">
<g clip-path="url(#clip0_1123_450)">
<path d="M13.523 11.7751C13.523 16.185 11.2147 18.4589 6.80477 18.4589C1.53357 18.4589 0.5 15.5649 0.5 12.5675V1.405H2.8083V12.3953C2.8083 14.7036 3.56625 16.564 6.94258 16.564C9.87103 16.564 11.2491 15.3582 11.2491 11.9474V1.405H13.4885L13.523 11.7751Z" fill="#C02032"/>
<path d="M18.1738 18.2177V1.405H20.4477V16.2884H26.4768V18.2177H18.1738Z" fill="#C02032"/>
<path d="M34.229 18.2156V1.40289C34.229 1.40289 36.6062 1.29953 38.6389 1.29953C43.0143 1.29953 45.0126 3.64229 45.0126 6.53628C45.0126 9.9126 42.4631 12.4621 38.2944 12.4621C37.4331 12.4621 36.5373 12.3932 36.5373 12.3932V18.2156H34.229ZM36.5029 10.4294C36.5029 10.4294 37.4675 10.5672 38.4322 10.5672C41.2228 10.5672 42.6354 8.94794 42.6354 6.8119C42.6354 4.6414 41.3262 3.1255 38.3633 3.1255C37.502 3.1255 36.5029 3.15995 36.5029 3.15995V10.4294Z" fill="#C02032"/>
<path d="M54.039 7.81202C51.4206 7.32969 50.1803 9.25902 50.1803 13.221V18.2166H47.9409V5.81379H50.1114C50.1114 6.57174 50.0425 7.74312 49.8358 8.74224H49.8702C50.387 7.01962 51.6618 5.33146 54.1423 5.57262L54.039 7.81202Z" fill="#C02032"/>
<path d="M60.9294 18.4588C57.5531 18.4588 55.3481 16.4606 55.3481 12.223C55.3481 8.50212 57.4497 5.60812 61.3773 5.60812C64.7536 5.60812 66.9241 7.60636 66.9241 11.844C66.9241 15.5648 64.857 18.4588 60.9294 18.4588ZM61.1706 7.46855C59.069 7.46855 57.6564 9.0189 57.6564 12.0163C57.6564 14.9102 58.9656 16.5295 61.1361 16.5295C63.0999 16.5295 64.6158 15.1514 64.6158 11.9818C64.6158 9.12226 63.3066 7.46855 61.1706 7.46855Z" fill="#C02032"/>
<path d="M77.5354 18.2169C77.5354 17.5279 77.5698 16.4254 77.7421 15.7019L77.7076 15.6674C77.0186 17.3211 75.5027 18.4236 73.5733 18.4236C70.5071 18.4236 69.0256 16.2187 69.0256 12.6012C69.0256 8.3291 71.4373 5.64182 75.4682 5.64182C76.1228 5.64182 76.7774 5.67627 77.5354 5.77963V0.0260925H79.7403V18.2169H77.5354ZM77.5009 7.70895C76.743 7.53669 76.0195 7.43334 75.296 7.43334C72.9532 7.43334 71.3684 8.84588 71.3684 12.4289C71.3684 15.0817 72.2297 16.6321 74.0901 16.6321C76.1917 16.6321 77.5009 14.2893 77.5009 11.7054V7.70895Z" fill="#C02032"/>
<path d="M91.8674 18.2187C91.8674 17.4607 91.9018 16.3583 92.0741 15.6003H92.0397C91.3162 17.2885 89.8003 18.4254 87.6642 18.4254C84.8391 18.4254 83.9434 16.6683 83.9434 14.4634V5.85031H86.1483V13.8088C86.1483 15.5659 86.6306 16.5994 88.2499 16.5994C90.2826 16.5994 91.764 14.4978 91.764 11.7761V5.85031H94.0034V18.2531L91.8674 18.2187Z" fill="#C02032"/>
<path d="M106.303 17.736C105.27 18.1495 103.96 18.4251 102.617 18.4251C99.6539 18.4251 97.1733 17.0125 97.1733 12.4304C97.1733 8.05494 99.5505 5.64328 103.168 5.64328C104.202 5.64328 105.27 5.84999 106.269 6.16006L105.855 8.08939C105.063 7.77932 104.064 7.53816 103.03 7.53816C100.791 7.53816 99.5505 9.43303 99.5505 12.1548C99.5505 14.5664 100.309 16.4958 103.065 16.4958C104.098 16.4958 105.063 16.289 105.959 15.9101L106.303 17.736Z" fill="#C02032"/>
<path d="M115.64 18.1485C114.916 18.3208 113.986 18.4241 113.194 18.4241C110.644 18.4241 109.852 17.3905 109.852 14.6688V7.57164H107.371V5.81457H109.852V1.81811L112.091 1.19797V5.84903H115.536V7.60609H112.091V14.152C112.091 16.0125 112.47 16.5637 113.779 16.5637C114.365 16.5637 114.985 16.4603 115.433 16.357L115.64 18.1485Z" fill="#C02032"/>
<path d="M125.183 3.98631C124.081 3.98631 123.219 3.12501 123.219 2.05698C123.219 0.988962 124.081 0.127655 125.183 0.127655C126.285 0.127655 127.181 0.988962 127.181 2.05698C127.181 3.12501 126.285 3.98631 125.183 3.98631ZM123.598 5.84674H126.802V18.2496H123.598V5.84674Z" fill="#C02032"/>
<path d="M146.095 19.8697C141.789 20.4898 141.169 18.4916 137.827 18.4916H137.138C132.073 18.4916 129.42 15.3909 129.42 10.1197C129.42 4.29727 133.21 1.12766 137.655 1.12766C142.719 1.12766 145.372 4.22836 145.372 9.49956C145.372 13.0137 143.994 15.7354 141.858 16.7001C143.236 16.6312 143.787 17.4236 146.095 17.1135V19.8697ZM137.379 4.02165C134.726 4.02165 132.831 6.01988 132.831 9.70628C132.831 13.3238 134.347 15.5632 137.379 15.5632C140.032 15.5632 141.927 13.5649 141.927 9.84409C141.927 6.2955 140.411 4.02165 137.379 4.02165Z" fill="#C02032"/>
<path d="M154.984 3.98835C154.984 5.91768 153.468 7.39913 151.539 7.39913C149.609 7.39913 148.059 5.88323 148.059 3.98835C148.059 2.12793 149.609 0.61203 151.539 0.61203C153.503 0.61203 154.984 2.12793 154.984 3.98835ZM148.92 3.98835C148.92 5.50426 150.023 6.67563 151.573 6.67563C153.055 6.67563 154.157 5.4698 154.157 3.98835C154.157 2.47245 153.055 1.26662 151.573 1.26662C150.023 1.30108 148.92 2.50691 148.92 3.98835ZM150.988 5.74542H150.195V2.3691C150.505 2.30019 150.953 2.26574 151.504 2.26574C152.159 2.26574 152.435 2.3691 152.676 2.50691C152.848 2.64472 153.02 2.92033 153.02 3.26486C153.02 3.64383 152.745 3.91945 152.331 4.05726V4.09171C152.676 4.22952 152.848 4.47069 152.951 4.91857C153.055 5.43535 153.124 5.64207 153.192 5.77987H152.331C152.228 5.64207 152.159 5.33199 152.056 4.95302C151.987 4.57404 151.78 4.40178 151.367 4.40178H150.988V5.74542ZM151.022 3.85055H151.401C151.849 3.85055 152.193 3.71274 152.193 3.36821C152.193 3.05814 151.952 2.85143 151.47 2.85143C151.263 2.85143 151.125 2.88588 151.022 2.88588V3.85055Z" fill="#C02032"/>
</g>
<defs>
<clipPath id="clip0_1123_450">
<rect width="156" height="19.9479" fill="white" transform="translate(0.5 0.0260925)"/>
</clipPath>
</defs>
</svg>
