<svg width="24" height="24" viewBox="0 0 24 24" fill="none" xmlns="http://www.w3.org/2000/svg">
<path d="M15.5862 10.657L11.6362 6.70701C11.4541 6.51841 11.3533 6.26581 11.3556 6.00361C11.3578 5.74141 11.463 5.4906 11.6484 5.30519C11.8338 5.11978 12.0846 5.01461 12.3468 5.01234C12.609 5.01006 12.8616 5.11085 13.0502 5.29301L18.7072 10.95C18.8004 11.0427 18.8744 11.1528 18.9248 11.2742C18.9753 11.3955 19.0013 11.5256 19.0013 11.657C19.0013 11.7884 18.9753 11.9185 18.9248 12.0399C18.8744 12.1612 18.8004 12.2714 18.7072 12.364L13.0502 18.021C12.958 18.1165 12.8477 18.1927 12.7256 18.2451C12.6036 18.2975 12.4724 18.3251 12.3396 18.3263C12.2069 18.3274 12.0752 18.3021 11.9523 18.2518C11.8294 18.2016 11.7177 18.1273 11.6238 18.0334C11.53 17.9395 11.4557 17.8279 11.4054 17.705C11.3551 17.5821 11.3298 17.4504 11.331 17.3176C11.3321 17.1848 11.3597 17.0536 11.4121 16.9316C11.4646 16.8096 11.5407 16.6993 11.6362 16.607L15.5862 12.657H6.00024C5.73503 12.657 5.48067 12.5517 5.29314 12.3641C5.1056 12.1766 5.00024 11.9222 5.00024 11.657C5.00024 11.3918 5.1056 11.1374 5.29314 10.9499C5.48067 10.7624 5.73503 10.657 6.00024 10.657H15.5862Z" fill="#4E5D78"/>
</svg>
