<svg width="48" height="48" viewBox="0 0 48 48" fill="none" xmlns="http://www.w3.org/2000/svg">
<g id="close 1">
<g id="Group 39493" opacity="0.6">
<path id="Vector" d="M31.8646 17.5115L31.8646 17.5114C32.2446 17.1312 32.2446 16.5151 31.8646 16.135C31.4845 15.755 30.8684 15.755 30.4883 16.135L16.135 30.4883C15.755 30.8683 15.755 31.4843 16.1349 31.8644C16.3245 32.0553 16.5741 32.15 16.8227 32.15C17.0719 32.15 17.3209 32.0539 17.5111 31.8649L17.5115 31.8646L31.8646 17.5115Z" fill="#4E5D78" stroke="#4E5D78" stroke-width="0.3"/>
<path id="Vector_2" d="M16.135 17.5114L16.135 17.5115L30.489 31.8642C30.4891 31.8643 30.4892 31.8645 30.4893 31.8646C30.6791 32.0553 30.9284 32.15 31.1771 32.15C31.4253 32.15 31.6741 32.0538 31.8642 31.8649L31.8646 31.8646C32.2446 31.4845 32.2446 30.8684 31.8646 30.4883L17.5115 16.135L17.5114 16.135C17.1312 15.755 16.5151 15.755 16.135 16.135C15.755 16.5151 15.755 17.1312 16.135 17.5114Z" fill="#4E5D78" stroke="#4E5D78" stroke-width="0.3"/>
</g>
</g>
</svg>
