<svg width="22" height="21" viewBox="0 0 22 21" fill="none" xmlns="http://www.w3.org/2000/svg">
<g id="letter">
<g id="Group">
<path id="Path" d="M11.6185 12.26C11.2333 12.4722 10.7662 12.4722 10.381 12.26L1.3999 7.30542V16.58C1.40096 17.6399 2.25995 18.4989 3.3199 18.5H18.6799C19.7399 18.4989 20.5988 17.6399 20.5999 16.58V7.30542L11.6185 12.26Z" fill="#354150"/>
<path id="Path_2" d="M18.6799 2.5H3.3199C2.25995 2.50106 1.40096 3.36005 1.3999 4.42V6.02C1.39986 6.1366 1.46324 6.244 1.56534 6.30032L10.8453 11.4203C10.9415 11.4734 11.0583 11.4734 11.1545 11.4203L20.4345 6.30032C20.5366 6.244 20.5999 6.1366 20.5999 6.02V4.42C20.5988 3.36005 19.7399 2.50106 18.6799 2.5Z" fill="#354150"/>
</g>
</g>
</svg>
