<svg width="20" height="25" viewBox="0 0 20 25" fill="none" xmlns="http://www.w3.org/2000/svg">
<path fill-rule="evenodd" clip-rule="evenodd" d="M0.999969 15.5305V9.25336L7.58926 13.8659L7.70458 13.9468L7.70459 13.9468C8.24909 14.3291 8.72725 14.6648 9.27184 14.8006C9.74821 14.9193 10.2464 14.9193 10.7228 14.8006C11.2674 14.6648 11.7456 14.3291 12.29 13.9468L12.4054 13.8659L18.9947 9.25336V15.5305C18.9947 16.3869 18.9939 16.969 18.9571 17.419C18.9213 17.8573 18.8564 18.0814 18.7768 18.2377C18.5851 18.6138 18.2793 18.9197 17.9031 19.1114C17.7468 19.191 17.5227 19.2559 17.0844 19.2917C16.6344 19.3285 16.0523 19.3293 15.1959 19.3293H4.7987C3.94234 19.3293 3.36021 19.3285 2.91026 19.2917C2.47197 19.2559 2.24787 19.191 2.09155 19.1114C1.71538 18.9197 1.40954 18.6138 1.21787 18.2377C1.13822 18.0814 1.07332 17.8573 1.03751 17.419C1.00075 16.969 0.999969 16.3869 0.999969 15.5305ZM11.2585 12.2274L18.9119 6.86999C18.8762 6.66299 18.8297 6.52904 18.7768 6.42508C18.5851 6.04891 18.2793 5.74307 17.9031 5.5514C17.7468 5.47175 17.5227 5.40685 17.0844 5.37104C16.6344 5.33427 16.0523 5.3335 15.1959 5.3335H4.7987C3.94234 5.3335 3.36021 5.33427 2.91026 5.37104C2.47197 5.40685 2.24787 5.47175 2.09155 5.5514C1.71538 5.74307 1.40954 6.04891 1.21787 6.42508C1.1649 6.52904 1.11845 6.66299 1.08274 6.86999L8.73619 12.2274C9.46495 12.7375 9.6193 12.826 9.75558 12.86C9.91431 12.8995 10.0803 12.8995 10.2391 12.86C10.3753 12.826 10.5297 12.7375 11.2585 12.2274Z" fill="white"/>
</svg>
