<svg width="20" height="25" viewBox="0 0 20 25" fill="none" xmlns="http://www.w3.org/2000/svg">
<path fill-rule="evenodd" clip-rule="evenodd" d="M1.99991 9.90409C1.99991 5.723 5.38935 2.33356 9.57044 2.33356C13.7515 2.33356 17.141 5.723 17.141 9.90409C17.141 11.9537 16.2165 13.8823 14.6704 15.8899C13.3654 17.5843 11.6951 19.2411 9.90657 21.0152L9.57044 21.3487L9.2343 21.0152L9.23427 21.0151C7.44572 19.2411 5.77543 17.5843 4.47048 15.8899C2.92439 13.8823 1.99991 11.9537 1.99991 9.90409ZM7.35649 9.90409C7.35649 8.68136 8.34771 7.69014 9.57044 7.69014C10.7932 7.69014 11.7844 8.68136 11.7844 9.90409C11.7844 11.1268 10.7932 12.118 9.57044 12.118C8.34771 12.118 7.35649 11.1268 7.35649 9.90409ZM9.57044 5.69014C7.24314 5.69014 5.35649 7.57679 5.35649 9.90409C5.35649 12.2314 7.24314 14.118 9.57044 14.118C11.8977 14.118 13.7844 12.2314 13.7844 9.90409C13.7844 7.57679 11.8977 5.69014 9.57044 5.69014Z" fill="white"/>
</svg>
