<svg width="22" height="21" viewBox="0 0 22 21" fill="none" xmlns="http://www.w3.org/2000/svg">
<g id="circle-08">
<g id="Group">
<path id="Shape" fill-rule="evenodd" clip-rule="evenodd" d="M11.0001 0.579956C5.53 0.579956 1.08008 5.0302 1.08008 10.5C1.08008 15.9697 5.53 20.42 11.0001 20.42C16.4702 20.42 20.9201 15.9697 20.9201 10.5C20.9201 5.0302 16.4702 0.579956 11.0001 0.579956ZM7.16008 9.21996C7.16008 7.10252 8.88264 5.37996 11.0001 5.37996C13.1175 5.37996 14.8401 7.10252 14.8401 9.21996V10.18C14.8401 12.2974 13.1175 14.02 11.0001 14.02C8.88264 14.02 7.16008 12.2974 7.16008 10.18V9.21996ZM5.3076 17.8209C6.88072 19.0468 8.85576 19.78 11.0001 19.78C13.1441 19.78 15.1191 19.0472 16.6922 17.8212C15.7716 16.2568 14.1146 15.3 12.2801 15.3H9.72008C7.88328 15.3 6.22632 16.2568 5.3076 17.8209Z" fill="#354150"/>
</g>
</g>
</svg>
