<svg width="88" height="88" viewBox="0 0 88 88" fill="none" xmlns="http://www.w3.org/2000/svg">
<g clip-path="url(#clip0_780_1259)">
<path d="M44 87.9711C68.3005 87.9711 88 68.2845 88 43.9999C88 19.7153 68.3005 0.0288086 44 0.0288086C19.6995 0.0288086 0 19.7153 0 43.9999C0 68.2845 19.6995 87.9711 44 87.9711Z" fill="#32BEA6"/>
<path d="M46.4445 60.4017C43.1028 64.3109 37.2774 64.9003 33.2204 61.7397L23.4643 54.1392C21.3677 52.5059 20.9923 49.482 22.6259 47.3856C24.2592 45.2894 27.2825 44.9141 29.3788 46.5472L38.3583 53.5425L59.2672 29.7788C61.153 27.6355 64.4348 27.4684 66.5285 29.4091C68.5262 31.2609 68.7062 34.3593 66.9362 36.4298L46.4445 60.4017Z" fill="white"/>
</g>
<defs>
<clipPath id="clip0_780_1259">
<rect width="88" height="88" fill="white"/>
</clipPath>
</defs>
</svg>
