<svg width="22" height="21" viewBox="0 0 22 21" fill="none" xmlns="http://www.w3.org/2000/svg">
<g id="tag">
<g id="Group">
<path id="Shape" fill-rule="evenodd" clip-rule="evenodd" d="M10.5862 1.31373L19.7177 10.4453C20.4675 11.195 20.4675 12.4107 19.7177 13.1605L13.6605 19.2177C12.9107 19.9675 11.695 19.9675 10.9453 19.2177L1.81373 10.0862C1.75371 10.0262 1.71999 9.94483 1.71997 9.85997V1.53997C1.71997 1.36324 1.86324 1.21997 2.03997 1.21997H10.36C10.4448 1.21999 10.5262 1.25371 10.5862 1.31373ZM5.23997 6.33997C5.23997 7.22363 5.95632 7.93997 6.83997 7.93997C7.26432 7.93997 7.67128 7.7714 7.97134 7.47134C8.2714 7.17128 8.43997 6.76432 8.43997 6.33997C8.43997 5.45632 7.72363 4.73997 6.83997 4.73997C5.95632 4.73997 5.23997 5.45632 5.23997 6.33997Z" fill="#354150"/>
</g>
</g>
</svg>
