<svg width="28" height="28" viewBox="0 0 28 28" fill="none" xmlns="http://www.w3.org/2000/svg">
<g id="Social Media Icon Square/Instagram">
<path id="Instagram" fill-rule="evenodd" clip-rule="evenodd" d="M4 14C4 10.0054 4 8.0081 4.95188 6.5695C5.37694 5.9271 5.9271 5.37694 6.5695 4.95188C8.0081 4 10.0054 4 14 4C17.9946 4 19.9919 4 21.4305 4.95188C22.0729 5.37694 22.6231 5.9271 23.0481 6.5695C24 8.0081 24 10.0054 24 14C24 17.9946 24 19.9919 23.0481 21.4305C22.6231 22.0729 22.0729 22.6231 21.4305 23.0481C19.9919 24 17.9946 24 14 24C10.0054 24 8.0081 24 6.5695 23.0481C5.9271 22.6231 5.37694 22.0729 4.95188 21.4305C4 19.9919 4 17.9946 4 14ZM19.1764 14.0007C19.1764 16.86 16.8586 19.1778 13.9993 19.1778C11.1401 19.1778 8.8222 16.86 8.8222 14.0007C8.8222 11.1415 11.1401 8.82361 13.9993 8.82361C16.8586 8.82361 19.1764 11.1415 19.1764 14.0007ZM13.9993 17.4263C15.8912 17.4263 17.4249 15.8926 17.4249 14.0007C17.4249 12.1088 15.8912 10.5752 13.9993 10.5752C12.1074 10.5752 10.5738 12.1088 10.5738 14.0007C10.5738 15.8926 12.1074 17.4263 13.9993 17.4263ZM19.3805 9.77962C20.0524 9.77962 20.597 9.23499 20.597 8.56315C20.597 7.89131 20.0524 7.34668 19.3805 7.34668C18.7087 7.34668 18.1641 7.89131 18.1641 8.56315C18.1641 9.23499 18.7087 9.77962 19.3805 9.77962Z" fill="white"/>
</g>
</svg>
