<svg width="28" height="28" viewBox="0 0 28 28" fill="none" xmlns="http://www.w3.org/2000/svg">
<g id="Social Media Icon Square/LinkedIn">
<g id="Group 73">
<path id="LinkedIn" d="M4 6.21236C4 5.57101 4.22523 5.04191 4.67568 4.62506C5.12612 4.20818 5.71172 3.99976 6.43243 3.99976C7.14029 3.99976 7.71299 4.20497 8.15058 4.61544C8.60102 5.03872 8.82625 5.59025 8.82625 6.27008C8.82625 6.88576 8.60747 7.39881 8.16988 7.80928C7.71944 8.23256 7.12741 8.4442 6.39382 8.4442H6.37452C5.66666 8.4442 5.09396 8.23256 4.65637 7.80928C4.21878 7.386 4 6.85368 4 6.21236ZM4.25097 23.0474V10.195H8.53668V23.0474H4.25097ZM10.9112 23.0474H15.1969V15.8708C15.1969 15.4219 15.2484 15.0756 15.3514 14.8319C15.5315 14.3958 15.805 14.027 16.1718 13.7256C16.5386 13.4241 16.9987 13.2734 17.5521 13.2734C18.9936 13.2734 19.7143 14.2418 19.7143 16.1787V23.0474H24V15.6784C24 13.7801 23.5496 12.3403 22.6486 11.3591C21.7477 10.3778 20.5573 9.8872 19.0772 9.8872C17.417 9.8872 16.1236 10.5991 15.1969 12.0228V12.0613H15.1776L15.1969 12.0228V10.195H10.9112C10.9369 10.6055 10.9498 11.8817 10.9498 14.0238C10.9498 16.1659 10.9369 19.1737 10.9112 23.0474Z" fill="white"/>
</g>
</g>
</svg>
