<svg width="28" height="28" viewBox="0 0 28 28" fill="none" xmlns="http://www.w3.org/2000/svg">
<g id="Social Media Icon Square/Twitter">
<path id="Twitter" d="M17.3634 6.0036V6H18.3012L18.6438 6.06844C18.8723 6.11286 19.0797 6.17109 19.266 6.24313C19.4524 6.31516 19.6327 6.39921 19.807 6.49526C19.9814 6.5913 20.1395 6.68916 20.2814 6.78881C20.422 6.88727 20.5483 6.99172 20.6601 7.10217C20.7707 7.21383 20.9432 7.24264 21.1776 7.18862C21.4121 7.13459 21.6646 7.05954 21.9351 6.9635C22.2056 6.86746 22.4731 6.7594 22.7376 6.63933C23.0021 6.51926 23.1632 6.44303 23.2209 6.41061C23.2774 6.37701 23.3075 6.359 23.3111 6.35658L23.3147 6.35118L23.3327 6.34218L23.3508 6.33317L23.3688 6.32417L23.3868 6.31516L23.3904 6.30976L23.3959 6.30616L23.4013 6.30256L23.4049 6.29715L23.4229 6.29175L23.4409 6.28815L23.4373 6.31516L23.4319 6.34218L23.4229 6.36919L23.4139 6.39621L23.4049 6.41421L23.3959 6.43222L23.3868 6.45924C23.3808 6.47725 23.3748 6.50125 23.3688 6.53128C23.3628 6.5613 23.3057 6.68135 23.1975 6.89146C23.0893 7.10158 22.954 7.31468 22.7917 7.53079C22.6294 7.74691 22.4839 7.91018 22.3553 8.02065C22.2254 8.13231 22.1395 8.21034 22.0974 8.25477C22.0553 8.30039 22.0042 8.3424 21.9441 8.38084L21.8539 8.44027L21.8359 8.44927L21.8179 8.45828L21.8143 8.46368L21.8088 8.46728L21.8034 8.47088L21.7998 8.47628L21.7818 8.48529L21.7638 8.49429L21.7602 8.4997L21.7547 8.5033L21.7493 8.5069L21.7457 8.5123L21.7421 8.51771L21.7367 8.52131L21.7313 8.52491L21.7277 8.53031H21.8179L22.3228 8.42226C22.6595 8.35022 22.9811 8.26318 23.2876 8.16112L23.7746 7.99904L23.8287 7.98103L23.8557 7.97202L23.8738 7.96302L23.8918 7.95401L23.9098 7.94501L23.9279 7.936L23.9639 7.9306L24 7.927V7.96302L23.991 7.96662L23.982 7.97202L23.9784 7.97743L23.9729 7.98103L23.9675 7.98463L23.9639 7.99003L23.9603 7.99544L23.9549 7.99904L23.9495 8.00264L23.9459 8.00804L23.9423 8.01344L23.9369 8.01705L23.9279 8.03506L23.9188 8.05307L23.9134 8.05667C23.911 8.06027 23.8347 8.16231 23.6844 8.36283C23.5341 8.56453 23.453 8.66657 23.4409 8.66898C23.4289 8.67259 23.4121 8.6906 23.3904 8.72301C23.37 8.75662 23.2426 8.8905 23.0081 9.12462C22.7737 9.35874 22.5441 9.56704 22.3192 9.74955C22.0932 9.93324 21.979 10.159 21.9766 10.4267C21.973 10.6932 21.9591 10.9946 21.9351 11.3308C21.911 11.6669 21.866 12.0301 21.7998 12.4203C21.7337 12.8105 21.6315 13.2518 21.4932 13.744C21.355 14.2363 21.1867 14.7165 20.9883 15.1848C20.7899 15.653 20.5825 16.0732 20.3661 16.4454C20.1497 16.8176 19.9513 17.1328 19.771 17.3909C19.5906 17.649 19.4073 17.8922 19.2209 18.1203C19.0346 18.3484 18.7989 18.6054 18.514 18.8911C18.2278 19.1756 18.0716 19.3317 18.0451 19.3593C18.0175 19.3857 17.8996 19.4842 17.6916 19.6547C17.4848 19.8264 17.2624 19.998 17.0243 20.1698C16.7875 20.3402 16.5699 20.4825 16.3715 20.5966C16.1731 20.7106 15.9339 20.8409 15.6537 20.9874C15.3748 21.1351 15.073 21.2719 14.7484 21.398C14.4238 21.5241 14.0812 21.6411 13.7205 21.7492C13.3598 21.8572 13.0111 21.9413 12.6745 22.0013C12.3379 22.0613 11.9561 22.1124 11.5293 22.1544L10.8891 22.2174V22.2264H9.71686V22.2174L9.56357 22.2084C9.46139 22.2024 9.37722 22.1964 9.31109 22.1904C9.24498 22.1844 8.99549 22.1514 8.56267 22.0913C8.12985 22.0313 7.79021 21.9713 7.54373 21.9113C7.29728 21.8512 6.93057 21.7372 6.44364 21.5691C5.95672 21.401 5.54013 21.2311 5.19387 21.0594C4.84882 20.8889 4.63241 20.7809 4.54463 20.7352C4.45807 20.6908 4.36069 20.6356 4.25248 20.5696L4.09017 20.4705L4.08658 20.4651L4.08115 20.4615L4.07574 20.4579L4.07214 20.4525L4.0541 20.4435L4.03607 20.4345L4.03248 20.4291L4.02705 20.4255L4.02164 20.4219L4.01803 20.4165L4.01445 20.4111L4.00902 20.4075H4V20.3715L4.01803 20.3751L4.03607 20.3805L4.11722 20.3895C4.17133 20.3955 4.31861 20.4045 4.55906 20.4165C4.79953 20.4285 5.055 20.4285 5.32552 20.4165C5.59603 20.4045 5.87257 20.3775 6.15509 20.3354C6.43764 20.2934 6.77127 20.2214 7.156 20.1193C7.54074 20.0173 7.89421 19.896 8.21643 19.7555C8.53744 19.6139 8.76586 19.5082 8.90173 19.4386C9.03638 19.3701 9.24197 19.2429 9.51849 19.0568L9.93327 18.7776L9.93688 18.7722L9.94229 18.7686L9.94772 18.765L9.95131 18.7596L9.95491 18.7542L9.96032 18.7506L9.96575 18.747L9.96934 18.7416L9.98738 18.7362L10.0054 18.7326L10.009 18.7146L10.0144 18.6966L10.0199 18.693L10.0234 18.6876L9.87917 18.6786C9.78299 18.6726 9.68981 18.6666 9.59964 18.6606C9.50947 18.6546 9.36821 18.6276 9.17583 18.5795C8.98348 18.5315 8.77609 18.4595 8.55365 18.3634C8.33124 18.2674 8.11482 18.1533 7.90442 18.0212C7.69403 17.8892 7.54193 17.7793 7.44815 17.6917C7.35558 17.6052 7.23535 17.4828 7.08747 17.3243C6.94079 17.1646 6.81335 17.0007 6.70514 16.8326C6.59693 16.6645 6.49354 16.4706 6.39497 16.2509L6.24527 15.9231L6.23625 15.8961L6.22723 15.8691L6.22182 15.8511L6.21821 15.8331L6.24527 15.8367L6.27232 15.8421L6.47069 15.8691C6.60296 15.8871 6.81035 15.8931 7.09288 15.8871C7.37542 15.8811 7.57078 15.8691 7.67899 15.8511C7.7872 15.8331 7.85333 15.8211 7.87737 15.8151L7.91344 15.8061L7.95852 15.7971L8.00361 15.7881L8.00721 15.7827L8.01262 15.7791L8.01805 15.7755L8.02164 15.7701L7.98557 15.7611L7.9495 15.7521L7.91344 15.7431L7.87737 15.734L7.8413 15.725C7.81726 15.719 7.77518 15.707 7.71506 15.689C7.65495 15.671 7.49264 15.605 7.22813 15.4909C6.96364 15.3769 6.75324 15.2658 6.59693 15.1578C6.44024 15.0494 6.29084 14.9309 6.14968 14.803C6.00902 14.6733 5.85454 14.5064 5.6862 14.3023C5.51789 14.0982 5.36761 13.8611 5.23535 13.5909C5.1031 13.3208 5.00391 13.0627 4.93778 12.8165C4.87192 12.5719 4.82846 12.3217 4.80795 12.0691L4.77547 11.691L4.79351 11.6946L4.81154 11.7L4.82958 11.709L4.84761 11.718L4.86564 11.727L4.88368 11.736L5.16321 11.862C5.34958 11.9461 5.58101 12.0181 5.85753 12.0782C6.13407 12.1382 6.29937 12.1712 6.35347 12.1772L6.43463 12.1862H6.59693L6.59335 12.1808L6.58792 12.1772L6.58251 12.1736L6.5789 12.1682L6.57531 12.1628L6.56988 12.1592L6.56447 12.1556L6.56087 12.1502L6.54283 12.1412L6.5248 12.1322L6.52121 12.1268L6.51578 12.1232L6.51037 12.1196L6.50676 12.1142L6.48873 12.1052L6.47069 12.0962L6.46711 12.0908C6.4635 12.0883 6.41179 12.0499 6.31199 11.9755C6.2134 11.8999 6.11001 11.802 6.0018 11.6819C5.8936 11.5619 5.78539 11.4358 5.67719 11.3038C5.56878 11.1714 5.47223 11.0298 5.38864 10.8805C5.30449 10.7305 5.21551 10.5395 5.12173 10.3078C5.02916 10.0773 4.95883 9.84499 4.91073 9.61087C4.86265 9.37675 4.8356 9.14564 4.82958 8.91751C4.82357 8.68939 4.82958 8.49429 4.84761 8.33221C4.86564 8.17013 4.90171 7.98702 4.95582 7.78292C5.00992 7.57882 5.08808 7.36271 5.19026 7.13459L5.34355 6.79241L5.35257 6.7654L5.36159 6.73838L5.36702 6.73478L5.3706 6.72938L5.37421 6.72398L5.37962 6.72037L5.38505 6.72398L5.38864 6.72938L5.39225 6.73478L5.39766 6.73838L5.40308 6.74198L5.40667 6.74739L5.41028 6.75279L5.41569 6.75639L5.42471 6.7744L5.43372 6.79241L5.43915 6.79601L5.44274 6.80142L5.6862 7.07156C5.84851 7.25165 6.04088 7.45276 6.2633 7.67487C6.48573 7.89698 6.60896 8.01224 6.633 8.02065C6.65706 8.03025 6.68711 8.05786 6.72317 8.10349C6.75924 8.14792 6.87948 8.25418 7.08386 8.42226C7.28826 8.59034 7.55576 8.78545 7.88638 9.00756C8.21702 9.22967 8.58371 9.44879 8.98647 9.6649C9.38925 9.88101 9.82207 10.0761 10.2849 10.2502C10.7478 10.4243 11.0724 10.5384 11.2588 10.5924C11.4452 10.6464 11.7638 10.7154 12.2146 10.7995C12.6655 10.8835 13.0051 10.9376 13.2335 10.9616C13.462 10.9856 13.6183 10.9994 13.7024 11.003L13.8287 11.0066L13.8251 10.9796L13.8197 10.9526L13.7836 10.7275C13.7595 10.5774 13.7475 10.3673 13.7475 10.0971C13.7475 9.82699 13.7686 9.57786 13.8106 9.34974C13.8527 9.12161 13.9159 8.8905 14 8.65638C14.0842 8.42226 14.1665 8.23435 14.2471 8.09269C14.3288 7.95221 14.4358 7.79193 14.5681 7.61184C14.7003 7.43174 14.8717 7.24565 15.0821 7.05355C15.2925 6.86144 15.5329 6.69035 15.8034 6.54028C16.0739 6.39021 16.3234 6.27614 16.5518 6.1981C16.7803 6.12007 16.9727 6.06903 17.1289 6.04502C17.2852 6.02102 17.3634 6.0072 17.3634 6.0036Z" fill="white"/>
</g>
</svg>
