<svg width="28" height="28" viewBox="0 0 28 28" fill="none" xmlns="http://www.w3.org/2000/svg">
<g id="Social Media Icon Square/YouTube">
<g id="Group 73">
<path id="YouTube" d="M14.4874 21.5316L9.97385 21.4472C8.51246 21.4178 7.04744 21.4765 5.61471 21.172C3.43519 20.717 3.28079 18.486 3.11922 16.6146C2.89659 13.9837 2.98278 11.305 3.4029 8.696C3.64007 7.23209 4.57344 6.35857 6.01686 6.26351C10.8895 5.91854 15.7945 5.95942 20.6563 6.12036C21.1698 6.13512 21.6868 6.21576 22.1931 6.30755C24.6923 6.75523 24.7533 9.28345 24.9153 11.4117C25.0768 13.562 25.0086 15.7233 24.6998 17.8589C24.4521 19.6271 23.978 21.1099 21.9776 21.2531C19.4712 21.4403 17.0223 21.5909 14.5089 21.543C14.509 21.5316 14.4946 21.5316 14.4874 21.5316ZM11.8339 17.055C13.7226 15.9467 15.5754 14.857 17.4534 13.7562C15.5611 12.6479 13.7118 11.5581 11.8339 10.4573V17.055Z" fill="white"/>
</g>
</g>
</svg>
